<svg xmlns="http://www.w3.org/2000/svg" xmlns:xlink="http://www.w3.org/1999/xlink" viewBox="0 0 18 18.11"><defs><clipPath id="a" transform="translate(-0.5 -0.5)"><rect width="19" height="19.11" fill="none"/></clipPath></defs><g clip-path="url(#a)"><path d="M11.37,1.5a6.13,6.13,0,0,1,0,12.26H8l-.29.3L4.54,17.23V12.94l-.42-.3A6.12,6.12,0,0,1,7.63,1.5h3.74m0-1H7.63a7.12,7.12,0,0,0-4.09,13V18a.66.66,0,0,0,.66.66h.09a.66.66,0,0,0,.47-.19l3.66-3.66h2.95A7.13,7.13,0,0,0,11.37.5" transform="translate(-0.5 -0.5)" fill="currentColor"/></g></svg>