<svg xmlns="http://www.w3.org/2000/svg" viewBox="0 0 16 21"><path d="M203.21,164a1.79,1.79,0,0,1,1.79,1.79v15.42a1.79,1.79,0,0,1-1.79,1.79H192.79a1.79,1.79,0,0,1-1.79-1.79V165.79a1.79,1.79,0,0,1,1.79-1.79h10.42m0-1H192.79a2.79,2.79,0,0,0-2.79,2.79v15.42a2.79,2.79,0,0,0,2.79,2.79h10.42a2.79,2.79,0,0,0,2.79-2.79V165.79a2.79,2.79,0,0,0-2.79-2.79Z" transform="translate(-190 -163)" fill="currentColor"/><polygon points="12 4 4 4 4 5 12 5 12 4 12 4" fill="currentColor"/><polygon points="12 8 4 8 4 9 12 9 12 8 12 8" fill="currentColor"/><polygon points="12 12 4 12 4 13 12 13 12 12 12 12" fill="currentColor"/><polygon points="12 16 4 16 4 17 12 17 12 16 12 16" fill="currentColor"/></svg>