<svg xmlns="http://www.w3.org/2000/svg" viewBox="0 0 24.31 30.3"><line x1="6.6" y1="16.74" x2="8.62" y2="16.95" fill="none" stroke="currentColor" stroke-linecap="round" stroke-linejoin="round"/><line x1="17.71" y1="16.74" x2="15.7" y2="16.95" fill="none" stroke="currentColor" stroke-linecap="round" stroke-linejoin="round"/><path d="M170.81,225.5c7.19,0,9.54,4.56,9.54,8.1a26.43,26.43,0,0,1,0,4.18,2.05,2.05,0,0,1,.88-.28c.3,0,.54.16.56.67a9.71,9.71,0,0,1-.35,3.07,4.14,4.14,0,0,1-1.11,1.56,1.21,1.21,0,0,1-.57.19l0,.2c-.26,1.66-1.36,3.33-2.2,4.91-1.67,3.11-3.82,5.66-6.89,5.7s-5.22-2.59-6.88-5.7c-.85-1.58-1.94-3.25-2.21-4.91l0-.2a1.14,1.14,0,0,1-.56-.19,4.23,4.23,0,0,1-1.12-1.56,10.33,10.33,0,0,1-.35-3.07c0-.51.26-.67.57-.67a2,2,0,0,1,.87.28,26.42,26.42,0,0,1,.05-4.18c0-3.55,2.35-8.1,9.54-8.1h.25m0-1h-.25c-3.5,0-6.33,1.05-8.2,3a8.82,8.82,0,0,0-2.34,6,25.32,25.32,0,0,0-.1,2.95,1.58,1.58,0,0,0-1.39,1.62,11.37,11.37,0,0,0,.41,3.46,5.16,5.16,0,0,0,1.42,2l0,0,0,0a1.78,1.78,0,0,0,.28.16,14.51,14.51,0,0,0,1.72,3.87l.51.93c2.22,4.15,4.75,6.19,7.75,6.23s5.56-2.08,7.78-6.23c.16-.31.33-.61.51-.93a15.17,15.17,0,0,0,1.72-3.87,1.56,1.56,0,0,0,.27-.16l0,0,0,0a5.3,5.3,0,0,0,1.41-2,10.78,10.78,0,0,0,.41-3.46,1.57,1.57,0,0,0-1.38-1.62,25.32,25.32,0,0,0-.1-2.95c0-4.51-3.29-9.05-10.54-9.05Z" transform="translate(-158.53 -224.5)" fill="currentColor"/><path d="M180.54,230.29c-3.65-.29-7.57.51-11.3,5.63-2.57,3.53-8.54,1.06-8.54,1.06" transform="translate(-158.53 -224.5)" fill="none" stroke="currentColor" stroke-miterlimit="10"/></svg>