<svg xmlns="http://www.w3.org/2000/svg" viewBox="0 0 22.09 21.75"><path d="M231.44,184.5h2.8a.9.9,0,0,1,.89.71l1,2.93H248.7a.9.9,0,0,1,.73.36.91.91,0,0,1,.15.8l-3.34,6.93a1.94,1.94,0,0,1-1.87,1.28h-5.53c-.46,0-1.4,0-2-1.57-.17-.78-3.17-9.09-3.29-9.61h-2.07a.91.91,0,0,1,0-1.82m0-1.5h0a2.41,2.41,0,0,0,0,4.82h1c.22.63.55,1.59,1.07,3,.69,2,1.74,5,1.85,5.41l0,.1,0,.13a3.53,3.53,0,0,0,3.43,2.51h5.53a3.42,3.42,0,0,0,3.21-2.11l3.35-6.95.06-.12,0-.12a2.41,2.41,0,0,0-2.32-3.07H237.21l-.64-1.86a2.39,2.39,0,0,0-2.33-1.78Z" transform="translate(-229.03 -183)" fill="currentColor"/><path d="M238.23,200.86a1.2,1.2,0,1,1-1.19,1.2,1.19,1.19,0,0,1,1.19-1.2m0-1.5a2.7,2.7,0,1,0,2.69,2.7,2.69,2.69,0,0,0-2.69-2.7Z" transform="translate(-229.03 -183)" fill="currentColor"/><path d="M244.75,200.86a1.2,1.2,0,1,1-1.19,1.2,1.19,1.19,0,0,1,1.19-1.2m0-1.5a2.7,2.7,0,1,0,2.69,2.7,2.69,2.69,0,0,0-2.69-2.7Z" transform="translate(-229.03 -183)" fill="currentColor"/><path d="M239.68,193.9" transform="translate(-229.03 -183)" fill="none" stroke="currentColor" stroke-linecap="round" stroke-linejoin="round" stroke-width="1.5"/><line x1="10.06" y1="8.12" x2="15.12" y2="8.12" fill="none" stroke="currentColor" stroke-linecap="round" stroke-linejoin="round" stroke-width="1.5"/><line x1="11.09" y1="11.23" x2="14.09" y2="11.23" fill="none" stroke="currentColor" stroke-linecap="round" stroke-linejoin="round" stroke-width="1.5"/></svg>