<svg xmlns="http://www.w3.org/2000/svg" viewBox="0 0 27.14 26.48"><path d="M228.7,225.5h3.7a1.21,1.21,0,0,1,1.17.94l1.32,3.86h16.55a1.18,1.18,0,0,1,1,.48,1.19,1.19,0,0,1,.2,1.05L248.2,241a2.55,2.55,0,0,1-2.46,1.69h-7.29c-.61,0-1.85,0-2.69-2.08-.23-1-4.17-12-4.33-12.65H228.7a1.2,1.2,0,1,1,0-2.4m0-1h0a2.2,2.2,0,1,0,0,4.4h2c.27.81.78,2.27,1.62,4.65,1,2.84,2.35,6.72,2.47,7.22v.08l0,.08c1.09,2.7,2.92,2.7,3.61,2.7h7.29a3.57,3.57,0,0,0,3.36-2.24l4.4-9.14,0-.08,0-.08a2.2,2.2,0,0,0-2.12-2.8H235.61l-1.08-3.14a2.19,2.19,0,0,0-2.13-1.66Z" transform="translate(-226.5 -224.5)" fill="currentColor"/><path d="M238.18,246.83a1.58,1.58,0,1,1-1.58,1.58,1.57,1.57,0,0,1,1.58-1.58m0-1a2.58,2.58,0,1,0,2.57,2.58,2.59,2.59,0,0,0-2.57-2.58Z" transform="translate(-226.5 -224.5)" fill="currentColor"/><path d="M245.45,246.83a1.58,1.58,0,1,1-1.57,1.58,1.57,1.57,0,0,1,1.57-1.58m0-1a2.58,2.58,0,1,0,2.57,2.58,2.58,2.58,0,0,0-2.57-2.58Z" transform="translate(-226.5 -224.5)" fill="currentColor"/><path d="M239.55,237.89" transform="translate(-226.5 -224.5)" fill="none" stroke="currentColor" stroke-linecap="round" stroke-linejoin="round"/><line x1="12.27" y1="9.72" x2="18.94" y2="9.72" fill="none" stroke="currentColor" stroke-linecap="round" stroke-linejoin="round"/><line x1="13.64" y1="13.81" x2="17.58" y2="13.81" fill="none" stroke="currentColor" stroke-linecap="round" stroke-linejoin="round"/></svg>