<svg xmlns="http://www.w3.org/2000/svg" viewBox="0 0 22 26.98"><path d="M208.3,225a1.7,1.7,0,0,1,1.7,1.7v21.58a1.7,1.7,0,0,1-1.7,1.7h-.6a1.7,1.7,0,0,1-1.7-1.7V226.7a1.7,1.7,0,0,1,1.7-1.7h.6m0-1h-.6a2.7,2.7,0,0,0-2.7,2.7v21.58a2.7,2.7,0,0,0,2.7,2.7h.6a2.7,2.7,0,0,0,2.7-2.7V226.7a2.7,2.7,0,0,0-2.7-2.7Z" transform="translate(-189 -224)" fill="currentColor"/><path d="M200.3,235a1.7,1.7,0,0,1,1.7,1.7v11.58a1.7,1.7,0,0,1-1.7,1.7h-.6a1.7,1.7,0,0,1-1.7-1.7V236.7a1.7,1.7,0,0,1,1.7-1.7h.6m0-1h-.6a2.7,2.7,0,0,0-2.7,2.7v11.58a2.7,2.7,0,0,0,2.7,2.7h.6a2.7,2.7,0,0,0,2.7-2.7V236.7a2.7,2.7,0,0,0-2.7-2.7Z" transform="translate(-189 -224)" fill="currentColor"/><path d="M192.3,230a1.7,1.7,0,0,1,1.7,1.7v16.58a1.7,1.7,0,0,1-1.7,1.7h-.6a1.7,1.7,0,0,1-1.7-1.7V231.7a1.7,1.7,0,0,1,1.7-1.7h.6m0-1h-.6a2.7,2.7,0,0,0-2.7,2.7v16.58a2.7,2.7,0,0,0,2.7,2.7h.6a2.7,2.7,0,0,0,2.7-2.7V231.7a2.7,2.7,0,0,0-2.7-2.7Z" transform="translate(-189 -224)" fill="currentColor"/></svg>