<svg xmlns="http://www.w3.org/2000/svg" xmlns:xlink="http://www.w3.org/1999/xlink" viewBox="0 0 17 21"><defs><clipPath id="a"><rect width="17" height="21" fill="none"/></clipPath></defs><g clip-path="url(#a)"><path d="M15,18.21A1.79,1.79,0,0,1,13.21,20H3.79A1.79,1.79,0,0,1,2,18.21V6H1V18.21A2.79,2.79,0,0,0,3.79,21h9.42A2.79,2.79,0,0,0,16,18.21V6H15Z" fill="currentColor"/><polygon points="17 3 0 3 0 4 0.94 4 1.89 4 14.17 4 15.11 4 17 4 17 3" fill="currentColor"/><polygon points="17 5 0 5 0 6 0.94 6 1.89 6 14.17 6 15.11 6 17 6 17 5" fill="currentColor"/><polygon points="5 17 5 8 4 8 4 8.5 4 9 4 15.5 4 16 4 17 5 17" fill="currentColor"/><path d="M8.5,1A3.5,3.5,0,0,1,12,4h1a4.48,4.48,0,0,0-8.9,0h1A3.5,3.5,0,0,1,8.5,1" fill="currentColor"/></g></svg>