<svg xmlns="http://www.w3.org/2000/svg" viewBox="0 0 20 14.78"><rect x="272.51" y="125.23" width="1" height="3.85" rx="0.5" transform="translate(131.78 -261.43) rotate(90)" fill="currentColor"/><rect x="273.59" y="114.57" width="1" height="12.14" rx="0.5" transform="translate(273.88 -128.2) rotate(129.82)" fill="currentColor"/><rect x="282.18" y="114.57" width="1" height="12.15" rx="0.5" transform="translate(-74.06 -289.31) rotate(50.18)" fill="currentColor"/><path d="M286.46,116.57a.93.93,0,0,1,.93.93v10.93a.93.93,0,0,1-.93.92H270.32a.93.93,0,0,1-.93-.92V117.5a.93.93,0,0,1,.93-.93h16.14m0-1H270.32a1.92,1.92,0,0,0-1.93,1.93v10.93a1.92,1.92,0,0,0,1.93,1.92h16.14a1.92,1.92,0,0,0,1.93-1.92V117.5a1.92,1.92,0,0,0-1.93-1.93Z" transform="translate(-268.39 -115.57)" fill="currentColor"/></svg>