<svg xmlns="http://www.w3.org/2000/svg" xmlns:xlink="http://www.w3.org/1999/xlink" viewBox="0 0 17 21"><defs><clipPath id="a"><rect width="17" height="21" fill="none"/></clipPath></defs><g clip-path="url(#a)"><path d="M14.21,8A1.79,1.79,0,0,1,16,9.79v8.42A1.79,1.79,0,0,1,14.21,20H2.79A1.79,1.79,0,0,1,1,18.21V9.79A1.79,1.79,0,0,1,2.79,8H14.21m0-1H2.79A2.79,2.79,0,0,0,0,9.79v8.42A2.79,2.79,0,0,0,2.79,21H14.21A2.79,2.79,0,0,0,17,18.21V9.79A2.79,2.79,0,0,0,14.21,7" fill="currentColor"/><path d="M5,4.5a3.5,3.5,0,0,1,7,0V8h1V4.5a4.5,4.5,0,0,0-9,0V8H5Z" fill="currentColor"/><path d="M8.5,17.5h0a2,2,0,0,1-2-2v-3a2,2,0,0,1,4,0v3A2,2,0,0,1,8.5,17.5Z" fill="none" stroke="currentColor" stroke-miterlimit="10"/></g></svg>