<svg xmlns="http://www.w3.org/2000/svg" xmlns:xlink="http://www.w3.org/1999/xlink" viewBox="0 0 17 20"><defs><clipPath id="a" transform="translate(0 0)"><rect width="17" height="20" fill="none"/></clipPath></defs><rect x="5" y="4" width="9" height="1" fill="currentColor"/><rect x="3" y="4" width="1" height="1" fill="currentColor"/><rect x="5" y="8" width="9" height="1" fill="currentColor"/><rect x="3" y="8" width="1" height="1" fill="currentColor"/><rect x="5" y="12" width="9" height="1" fill="currentColor"/><rect x="3" y="12" width="1" height="1" fill="currentColor"/><g clip-path="url(#a)"><path d="M14.21,0H2.79A2.79,2.79,0,0,0,0,2.79V17.21A2.79,2.79,0,0,0,2.79,20H14.21A2.79,2.79,0,0,0,17,17.21V2.79A2.79,2.79,0,0,0,14.21,0M16,17.21A1.79,1.79,0,0,1,14.21,19H2.79A1.79,1.79,0,0,1,1,17.21V2.79A1.79,1.79,0,0,1,2.79,1H14.21A1.79,1.79,0,0,1,16,2.79Z" transform="translate(0 0)" fill="currentColor"/></g></svg>