<svg xmlns="http://www.w3.org/2000/svg" viewBox="0 0 26.85 26.85"><path d="M279.47,229.33A12.43,12.43,0,1,1,267,241.76a12.43,12.43,0,0,1,12.43-12.43m0-1a13.43,13.43,0,1,0,13.42,13.43,13.45,13.45,0,0,0-13.42-13.43Z" transform="translate(-266.04 -228.33)" fill="currentColor"/><path d="M279.47,234.54a.72.72,0,0,1,.64.4l1.78,3.61a.71.71,0,0,0,.53.39l4,.58a.72.72,0,0,1,.4,1.22l-2.88,2.8a.71.71,0,0,0-.21.63l.68,4a.71.71,0,0,1-.7.83.64.64,0,0,1-.33-.08L279.8,247a.67.67,0,0,0-.33-.08.68.68,0,0,0-.34.08l-3.55,1.87a.72.72,0,0,1-1-.75l.68-4a.71.71,0,0,0-.21-.63l-2.88-2.8a.72.72,0,0,1,.4-1.22l4-.58a.75.75,0,0,0,.54-.39l1.77-3.61a.72.72,0,0,1,.65-.4m0-1a1.71,1.71,0,0,0-1.54,1L276.21,238l-3.82.56a1.71,1.71,0,0,0-.95,2.92l2.77,2.7-.66,3.82a1.71,1.71,0,0,0,2.49,1.8l3.43-1.8,3.42,1.8a1.71,1.71,0,0,0,2.49-1.8l-.66-3.82,2.78-2.7a1.71,1.71,0,0,0,.43-1.76,1.69,1.69,0,0,0-1.39-1.16l-3.82-.56L281,234.5a1.7,1.7,0,0,0-1.53-1Z" transform="translate(-266.04 -228.33)" fill="currentColor"/></svg>