<svg xmlns="http://www.w3.org/2000/svg" viewBox="0 0 17.1 16.43"><path d="M279.47,234.08a.71.71,0,0,1,.64.39l1.78,3.61a.69.69,0,0,0,.53.39l4,.58a.72.72,0,0,1,.4,1.22l-2.88,2.8a.72.72,0,0,0-.21.64l.68,4a.71.71,0,0,1-.7.83.64.64,0,0,1-.33-.08l-3.56-1.87a.74.74,0,0,0-.67,0l-3.55,1.87a.72.72,0,0,1-1-.75l.68-4a.72.72,0,0,0-.21-.64l-2.88-2.8a.72.72,0,0,1,.4-1.22l4-.58a.72.72,0,0,0,.54-.39l1.77-3.61a.71.71,0,0,1,.65-.39m0-1a1.7,1.7,0,0,0-1.54.95l-1.72,3.47-3.82.56a1.71,1.71,0,0,0-.95,2.92l2.77,2.7-.66,3.82a1.72,1.72,0,0,0,2.49,1.81l3.43-1.8,3.42,1.8a1.72,1.72,0,0,0,2.49-1.81l-.66-3.82,2.78-2.7a1.71,1.71,0,0,0-1-2.92l-3.82-.56L281,234a1.69,1.69,0,0,0-1.53-.95Z" transform="translate(-270.92 -233.08)" fill="currentColor"/></svg>