<svg xmlns="http://www.w3.org/2000/svg" xmlns:xlink="http://www.w3.org/1999/xlink" viewBox="0 0 18 18"><defs><clipPath id="a"><rect width="18" height="18" fill="none"/></clipPath></defs><g clip-path="url(#a)"><path d="M6,8H2A2,2,0,0,1,0,6V2A2,2,0,0,1,2,0H6A2,2,0,0,1,8,2V6A2,2,0,0,1,6,8" fill="currentColor"/><path d="M16,8H12a2,2,0,0,1-2-2V2a2,2,0,0,1,2-2h4a2,2,0,0,1,2,2V6a2,2,0,0,1-2,2" fill="currentColor"/><path d="M6,18H2a2,2,0,0,1-2-2V12a2,2,0,0,1,2-2H6a2,2,0,0,1,2,2v4a2,2,0,0,1-2,2" fill="currentColor"/><path d="M16,18H12a2,2,0,0,1-2-2V12a2,2,0,0,1,2-2h4a2,2,0,0,1,2,2v4a2,2,0,0,1-2,2" fill="currentColor"/></g></svg>