<svg xmlns="http://www.w3.org/2000/svg" xmlns:xlink="http://www.w3.org/1999/xlink" viewBox="0 0 20 20"><defs><clipPath id="a"><rect width="20" height="20" fill="none"/></clipPath></defs><polygon points="5 6 4 6 3 6 3 7 4 7 4 8 4 9 12 9 12 11 4 11 4 12 4 13 3 13 3 14 4 14 5 14 5 13 5 12 13 12 13 8 5 8 5 7 5 6" fill="currentColor"/><rect x="2" y="7" width="1" height="1" fill="currentColor"/><rect x="1" y="8" width="1" height="1" fill="currentColor"/><polygon points="0 9 0 10 0 11 1 11 1 10 1 9 0 9" fill="currentColor"/><rect x="2" y="12" width="1" height="1" fill="currentColor"/><rect x="1" y="11" width="1" height="1" fill="currentColor"/><g clip-path="url(#a)"><path d="M17.21,0H5.79A2.79,2.79,0,0,0,3,2.79V4H4V2.79A1.79,1.79,0,0,1,5.79,1H17.21A1.79,1.79,0,0,1,19,2.79V17.21A1.79,1.79,0,0,1,17.21,19H5.79A1.79,1.79,0,0,1,4,17.21V16H3v1.21A2.79,2.79,0,0,0,5.79,20H17.21A2.79,2.79,0,0,0,20,17.21V2.79A2.79,2.79,0,0,0,17.21,0" fill="currentColor"/></g></svg>