<svg xmlns="http://www.w3.org/2000/svg" viewBox="0 0 14 21"><path d="M256.17,137.73a1,1,0,0,1,1,1v17a1,1,0,0,1-1,1h-10a1,1,0,0,1-1-1v-17a1,1,0,0,1,1-1h10m0-1h-10a2,2,0,0,0-2,2v17a2,2,0,0,0,2,2h10a2,2,0,0,0,2-2v-17a2,2,0,0,0-2-2Z" transform="translate(-244.16 -136.73)" fill="currentColor"/><polygon points="9 2 5 2 5 3 9 3 9 2 9 2" fill="currentColor"/><polygon points="8 18 6 18 6 19 8 19 8 18 8 18" fill="currentColor"/><polygon points="13 16 1 16 1 17 13 17 13 16 13 16" fill="currentColor"/></svg>