<svg xmlns="http://www.w3.org/2000/svg" xmlns:xlink="http://www.w3.org/1999/xlink" viewBox="0 0 17 20.28"><defs><clipPath id="a" transform="translate(0 0)"><rect width="17" height="20.28" fill="none"/></clipPath></defs><g clip-path="url(#a)"><path d="M3.5,1A2.5,2.5,0,1,1,1,3.5,2.5,2.5,0,0,1,3.5,1m0-1A3.5,3.5,0,1,0,7,3.5,3.5,3.5,0,0,0,3.5,0" transform="translate(0 0)" fill="currentColor"/><path d="M13.5,14A2.5,2.5,0,1,1,11,16.5,2.5,2.5,0,0,1,13.5,14m0-1A3.5,3.5,0,1,0,17,16.5,3.5,3.5,0,0,0,13.5,13" transform="translate(0 0)" fill="currentColor"/><rect x="-3" y="10" width="22" height="1" transform="translate(-5.09 12.18) rotate(-60)" fill="currentColor"/></g></svg>