<svg width="97" height="54" viewBox="0 0 97 54" fill="none" xmlns="http://www.w3.org/2000/svg">
<path d="M43.848 30.496C43.848 30.688 43.812 30.82 43.74 30.892C43.692 30.964 43.572 31 43.38 31H32.004C31.812 31 31.68 30.964 31.608 30.892C31.56 30.82 31.536 30.688 31.536 30.496V29.092C31.536 28.9 31.56 28.768 31.608 28.696C31.68 28.624 31.812 28.588 32.004 28.588H36.324V9.508L32.112 10.192C31.896 10.24 31.752 10.228 31.68 10.156C31.608 10.084 31.572 9.952 31.572 9.76V8.716C31.572 8.524 31.608 8.38 31.68 8.284C31.752 8.164 31.896 8.068 32.112 7.996L37.044 6.556C37.548 6.412 37.992 6.412 38.376 6.556C38.76 6.676 38.952 7 38.952 7.528V28.588H43.38C43.572 28.588 43.692 28.624 43.74 28.696C43.812 28.768 43.848 28.9 43.848 29.092V30.496ZM49.1043 14.152C49.1043 12.808 49.3443 11.644 49.8243 10.66C50.3283 9.676 50.9883 8.86 51.8043 8.212C52.6203 7.564 53.5563 7.084 54.6123 6.772C55.6923 6.46 56.8083 6.304 57.9603 6.304C61.0323 6.304 63.3843 7.276 65.0163 9.22C66.6723 11.164 67.5003 13.948 67.5003 17.572C67.5003 19.588 67.2843 21.448 66.8523 23.152C66.4203 24.832 65.7363 26.284 64.8003 27.508C63.8883 28.732 62.7003 29.692 61.2363 30.388C59.7723 31.06 58.0083 31.396 55.9443 31.396C55.3923 31.396 54.7563 31.348 54.0363 31.252C53.3403 31.156 52.7163 31.012 52.1643 30.82C51.8523 30.724 51.7443 30.52 51.8403 30.208L52.3443 28.804C52.3923 28.516 52.5843 28.42 52.9203 28.516C53.0883 28.564 53.2923 28.624 53.5323 28.696C53.7723 28.744 54.0363 28.792 54.3243 28.84C54.6123 28.888 54.9003 28.936 55.1883 28.984C55.4763 29.008 55.7403 29.02 55.9803 29.02C58.5243 29.02 60.5283 28.252 61.9923 26.716C63.4563 25.18 64.3203 23.032 64.5843 20.272C63.4083 20.704 62.2323 21.016 61.0563 21.208C59.9043 21.376 58.8243 21.46 57.8163 21.46C56.6643 21.46 55.5603 21.316 54.5043 21.028C53.4483 20.716 52.5123 20.26 51.6963 19.66C50.9043 19.06 50.2683 18.304 49.7883 17.392C49.3323 16.48 49.1043 15.4 49.1043 14.152ZM51.8043 13.972C51.8043 15.436 52.3083 16.66 53.3163 17.644C54.3243 18.604 55.7523 19.084 57.6003 19.084C58.7763 19.084 59.9163 18.988 61.0203 18.796C62.1483 18.604 63.3963 18.304 64.7643 17.896C64.7883 17.584 64.8003 17.344 64.8003 17.176C64.8003 17.008 64.8003 16.84 64.8003 16.672C64.8003 15.472 64.6203 14.38 64.2603 13.396C63.9243 12.412 63.4443 11.572 62.8203 10.876C62.1963 10.156 61.4643 9.604 60.6243 9.22C59.7843 8.812 58.8843 8.608 57.9243 8.608C57.1323 8.608 56.3643 8.728 55.6203 8.968C54.8763 9.184 54.2163 9.52 53.6403 9.976C53.0883 10.432 52.6443 10.996 52.3083 11.668C51.9723 12.316 51.8043 13.084 51.8043 13.972Z" fill="#E31E24"/>
<path d="M34 53L37.5136 44.5455C37.8723 43.6824 39.1136 43.7394 39.3917 44.6317L42 53" stroke="#E31E24" stroke-width="2" stroke-linecap="round"/>
<path d="M46 44L46 53" stroke="#E31E24" stroke-width="2" stroke-linecap="round"/>
<path d="M58 44L58 53" stroke="#E31E24" stroke-width="2" stroke-linecap="round"/>
<path d="M51 44H46" stroke="#E31E24" stroke-width="2" stroke-linecap="round"/>
<path d="M61 44H55" stroke="#E31E24" stroke-width="2" stroke-linecap="round"/>
<path d="M51 53H46" stroke="#E31E24" stroke-width="2" stroke-linecap="round"/>
<path d="M50 48H46" stroke="#E31E24" stroke-width="2" stroke-linecap="round"/>
<path d="M11.6046 15.7026C8.5963 23.1159 6.06075 40.9076 19.9847 52.7688" stroke="#E31E24" stroke-width="2" stroke-linecap="round"/>
<path d="M15.0788 12.5771C14.8773 13.1321 14.3063 13.9456 13.5952 14.554C13.2473 14.8516 12.9112 15.0604 12.6241 15.1688C12.3364 15.2775 12.1738 15.2592 12.0935 15.23C12.0132 15.2009 11.8768 15.1107 11.7258 14.8427C11.5751 14.5754 11.4512 14.1996 11.3752 13.7482C11.22 12.8253 11.3038 11.8349 11.5053 11.2798C11.7031 10.7349 12.2364 10.0056 12.9032 9.47963C13.6155 8.91775 14.1374 8.84152 14.3806 8.92983C14.6239 9.01813 14.9753 9.41137 15.1613 10.2994C15.3354 11.1306 15.2766 12.0321 15.0788 12.5771Z" stroke="#E31E24" stroke-width="2"/>
<path d="M7.37376 18.8077C7.76352 19.2513 8.20213 20.1432 8.39353 21.0593C8.48716 21.5074 8.50855 21.9025 8.46553 22.2063C8.42241 22.5109 8.3282 22.6446 8.26403 22.701C8.19986 22.7573 8.05513 22.8336 7.74758 22.8371C7.44072 22.8406 7.05167 22.7686 6.61932 22.618C5.73552 22.3103 4.90753 21.7605 4.51777 21.3169C4.13512 20.8813 3.7522 20.0631 3.61174 19.2255C3.46168 18.3307 3.64582 17.8365 3.84024 17.6657C4.03465 17.4949 4.54844 17.3759 5.41643 17.6399C6.22895 17.8871 6.99111 18.3722 7.37376 18.8077Z" stroke="#E31E24" stroke-width="2"/>
<path d="M6.36491 28.7099C6.77486 29.135 7.25442 30.0055 7.48816 30.9117C7.60251 31.355 7.64222 31.7487 7.61336 32.0542C7.58444 32.3604 7.49654 32.4984 7.43506 32.5577C7.37358 32.617 7.23254 32.6998 6.92549 32.7176C6.61913 32.7354 6.22715 32.6815 5.78827 32.5512C4.89113 32.2849 4.0385 31.7741 3.62856 31.3491C3.22609 30.9318 2.80557 30.1322 2.62635 29.302C2.4349 28.4152 2.59589 27.913 2.78216 27.7334C2.96843 27.5537 3.47614 27.411 4.35546 27.6344C5.17858 27.8435 5.96244 28.2927 6.36491 28.7099Z" stroke="#E31E24" stroke-width="2"/>
<path d="M9.22077 40.374C9.69663 40.7237 10.3164 41.5007 10.6999 42.3544C10.8875 42.772 10.9931 43.1533 11.0163 43.4593C11.0395 43.766 10.9762 43.9168 10.9256 43.9856C10.875 44.0545 10.75 44.16 10.4504 44.2294C10.1514 44.2987 9.75597 44.3118 9.30139 44.2575C8.37214 44.1465 7.44549 43.7872 6.96962 43.4375C6.50244 43.0942 5.95287 42.3772 5.63599 41.5892C5.29746 40.7475 5.37128 40.2253 5.52453 40.0168C5.67777 39.8082 6.15406 39.5818 7.05848 39.6534C7.9051 39.7205 8.75359 40.0307 9.22077 40.374Z" stroke="#E31E24" stroke-width="2"/>
<path d="M14.7501 24.841C14.187 25.0189 13.194 25.0609 12.2785 24.8668C11.8306 24.7719 11.4604 24.6323 11.1997 24.4705C10.9384 24.3083 10.854 24.1681 10.8282 24.0867C10.8025 24.0053 10.7911 23.8421 10.9118 23.5592C11.0322 23.2769 11.2549 22.9499 11.567 22.6149C12.2048 21.9301 13.0416 21.3939 13.6047 21.216C14.1575 21.0413 15.0607 21.0206 15.8839 21.2296C16.7632 21.4529 17.1413 21.8206 17.2193 22.0673C17.2972 22.3141 17.1991 22.8323 16.6077 23.5202C16.054 24.1643 15.3029 24.6663 14.7501 24.841Z" stroke="#E31E24" stroke-width="2"/>
<path d="M15.1419 32.5787C14.6017 32.8173 13.6192 32.9678 12.688 32.8753C12.2324 32.83 11.8491 32.7318 11.5722 32.5995C11.2947 32.4669 11.1954 32.3369 11.1609 32.2588C11.1264 32.1806 11.0972 32.0197 11.1862 31.7253C11.2749 31.4315 11.4605 31.0821 11.7339 30.7149C12.2929 29.9643 13.0659 29.3396 13.6061 29.1011C14.1365 28.8669 15.032 28.7473 15.8731 28.8649C16.7716 28.9904 17.1877 29.3145 17.2922 29.5512C17.3968 29.788 17.356 30.3138 16.8435 31.0624C16.3638 31.7632 15.6722 32.3445 15.1419 32.5787Z" stroke="#E31E24" stroke-width="2"/>
<path d="M17.4414 41.0674C17.1365 41.5732 16.4192 42.2611 15.6041 42.7208C15.2053 42.9457 14.8352 43.0856 14.5326 43.1366C14.2293 43.1877 14.0733 43.1384 14.0002 43.0943C13.927 43.0502 13.8106 42.9353 13.7141 42.6432C13.6178 42.3518 13.5688 41.9592 13.5814 41.5016C13.6072 40.5661 13.8806 39.6106 14.1855 39.1048C14.4848 38.6083 15.1488 37.9957 15.9046 37.6083C16.7119 37.1945 17.2387 37.2204 17.4603 37.354C17.682 37.4876 17.9509 37.9413 17.962 38.8485C17.9723 39.6977 17.7407 40.5709 17.4414 41.0674Z" stroke="#E31E24" stroke-width="2"/>
<path d="M84.8564 15.7026C87.8646 23.1159 90.4002 40.9076 76.4762 52.7688" stroke="#E31E24" stroke-width="2" stroke-linecap="round"/>
<path d="M81.3821 12.5771C81.5836 13.1321 82.1546 13.9456 82.8658 14.554C83.2136 14.8516 83.5497 15.0604 83.8368 15.1688C84.1246 15.2775 84.2871 15.2592 84.3674 15.23C84.4477 15.2009 84.5841 15.1107 84.7351 14.8427C84.8858 14.5754 85.0098 14.1996 85.0857 13.7482C85.2409 12.8253 85.1571 11.8349 84.9556 11.2798C84.7578 10.7349 84.2245 10.0056 83.5577 9.47963C82.8454 8.91775 82.3236 8.84152 82.0803 8.92983C81.8371 9.01813 81.4856 9.41137 81.2997 10.2994C81.1255 11.1306 81.1843 12.0321 81.3821 12.5771Z" stroke="#E31E24" stroke-width="2"/>
<path d="M89.0872 18.8077C88.6974 19.2513 88.2588 20.1432 88.0674 21.0593C87.9738 21.5074 87.9524 21.9025 87.9954 22.2063C88.0385 22.5109 88.1327 22.6446 88.1969 22.701C88.2611 22.7573 88.4058 22.8336 88.7134 22.8371C89.0202 22.8406 89.4093 22.7686 89.8416 22.618C90.7254 22.3103 91.5534 21.7605 91.9432 21.3169C92.3258 20.8813 92.7087 20.0631 92.8492 19.2255C92.9993 18.3307 92.8151 17.8365 92.6207 17.6657C92.4263 17.4949 91.9125 17.3759 91.0445 17.6399C90.232 17.8871 89.4698 18.3722 89.0872 18.8077Z" stroke="#E31E24" stroke-width="2"/>
<path d="M90.096 28.7099C89.6861 29.135 89.2065 30.0055 88.9728 30.9117C88.8584 31.355 88.8187 31.7487 88.8476 32.0542C88.8765 32.3604 88.9644 32.4984 89.0259 32.5577C89.0874 32.617 89.2284 32.6998 89.5354 32.7176C89.8418 32.7354 90.2338 32.6815 90.6727 32.5512C91.5698 32.2849 92.4224 31.7741 92.8324 31.3491C93.2348 30.9318 93.6554 30.1322 93.8346 29.302C94.026 28.4152 93.8651 27.913 93.6788 27.7334C93.4925 27.5537 92.9848 27.411 92.1055 27.6344C91.2824 27.8435 90.4985 28.2927 90.096 28.7099Z" stroke="#E31E24" stroke-width="2"/>
<path d="M87.2402 40.374C86.7643 40.7237 86.1446 41.5007 85.7611 42.3544C85.5735 42.772 85.4678 43.1533 85.4447 43.4593C85.4214 43.766 85.4848 43.9168 85.5353 43.9856C85.5859 44.0545 85.7109 44.16 86.0106 44.2294C86.3095 44.2987 86.705 44.3118 87.1595 44.2575C88.0888 44.1465 89.0155 43.7872 89.4913 43.4375C89.9585 43.0942 90.5081 42.3772 90.825 41.5892C91.1635 40.7475 91.0897 40.2253 90.9364 40.0168C90.7832 39.8082 90.3069 39.5818 89.4025 39.6534C88.5558 39.7205 87.7073 40.0307 87.2402 40.374Z" stroke="#E31E24" stroke-width="2"/>
<path d="M81.7108 24.841C82.2739 25.0189 83.2669 25.0609 84.1824 24.8668C84.6303 24.7719 85.0005 24.6323 85.2612 24.4705C85.5226 24.3083 85.607 24.1681 85.6327 24.0867C85.6584 24.0053 85.6699 23.8421 85.5492 23.5592C85.4288 23.2769 85.206 22.9499 84.894 22.6149C84.2561 21.9301 83.4193 21.3939 82.8562 21.216C82.3034 21.0413 81.4002 21.0206 80.5771 21.2296C79.6977 21.4529 79.3196 21.8206 79.2417 22.0673C79.1637 22.3141 79.2619 22.8323 79.8533 23.5202C80.4069 24.1643 81.158 24.6663 81.7108 24.841Z" stroke="#E31E24" stroke-width="2"/>
<path d="M81.3191 32.5787C81.8593 32.8173 82.8417 32.9678 83.773 32.8753C84.2285 32.83 84.6118 32.7318 84.8887 32.5995C85.1663 32.4669 85.2655 32.3369 85.3 32.2588C85.3345 32.1806 85.3637 32.0197 85.2748 31.7253C85.186 31.4315 85.0004 31.0821 84.727 30.7149C84.1681 29.9643 83.395 29.3396 82.8548 29.1011C82.3245 28.8669 81.429 28.7473 80.5879 28.8649C79.6894 28.9904 79.2733 29.3145 79.1687 29.5512C79.0642 29.788 79.105 30.3138 79.6175 31.0624C80.0972 31.7632 80.7887 32.3445 81.3191 32.5787Z" stroke="#E31E24" stroke-width="2"/>
<path d="M79.0196 41.0674C79.3244 41.5732 80.0417 42.2611 80.8569 42.7208C81.2557 42.9457 81.6257 43.0856 81.9284 43.1366C82.2317 43.1877 82.3876 43.1384 82.4608 43.0943C82.5339 43.0502 82.6504 42.9353 82.7468 42.6432C82.8431 42.3518 82.8922 41.9592 82.8795 41.5016C82.8537 40.5661 82.5803 39.6106 82.2754 39.1048C81.9761 38.6083 81.3122 37.9957 80.5564 37.6083C79.749 37.1945 79.2223 37.2204 79.0006 37.354C78.779 37.4876 78.5101 37.9413 78.499 38.8485C78.4886 39.6977 78.7203 40.5709 79.0196 41.0674Z" stroke="#E31E24" stroke-width="2"/>
</svg>
