<svg width="90" height="65" viewBox="0 0 90 65" fill="none" xmlns="http://www.w3.org/2000/svg">
<mask id="path-1-inside-1_20_178" fill="white">
<path fill-rule="evenodd" clip-rule="evenodd" d="M60.4281 22.9259C60.3577 22.2446 60.2556 21.5454 60.3319 20.8648C60.4763 19.5764 59.7934 18.3715 58.7089 17.6611C48.6384 11.0645 42.4981 7.29047 32.2253 1.50103C30.9884 0.803936 29.4722 0.819029 28.2453 1.53362C25.3873 3.19826 22.8392 4.65989 20.5052 5.99876C13.0896 10.2526 7.83423 13.2672 1.66074 17.6164C0.613094 18.3545 -0.027812 19.5543 0.112503 20.8281C0.19025 21.5339 0.0832203 22.259 0.0173935 22.966C0.005884 23.0896 0 23.2149 0 23.3415V58.4427C0 60.6518 1.79086 62.4427 4 62.4427H56.4494C58.6585 62.4427 60.4494 60.6518 60.4494 58.4427V23.3415C60.4494 23.2012 60.4422 23.0625 60.4281 22.9259Z"/>
</mask>
<path fill-rule="evenodd" clip-rule="evenodd" d="M60.4281 22.9259C60.3577 22.2446 60.2556 21.5454 60.3319 20.8648C60.4763 19.5764 59.7934 18.3715 58.7089 17.6611C48.6384 11.0645 42.4981 7.29047 32.2253 1.50103C30.9884 0.803936 29.4722 0.819029 28.2453 1.53362C25.3873 3.19826 22.8392 4.65989 20.5052 5.99876C13.0896 10.2526 7.83423 13.2672 1.66074 17.6164C0.613094 18.3545 -0.027812 19.5543 0.112503 20.8281C0.19025 21.5339 0.0832203 22.259 0.0173935 22.966C0.005884 23.0896 0 23.2149 0 23.3415V58.4427C0 60.6518 1.79086 62.4427 4 62.4427H56.4494C58.6585 62.4427 60.4494 60.6518 60.4494 58.4427V23.3415C60.4494 23.2012 60.4422 23.0625 60.4281 22.9259Z" fill="white"/>
<path d="M20.5052 5.99876L21.5004 7.7336V7.7336L20.5052 5.99876ZM60.4281 22.9259L62.4175 22.7205L60.4281 22.9259ZM0.0173935 22.966L-1.97399 22.7806L0.0173935 22.966ZM60.3319 20.8648L58.3443 20.6421L60.3319 20.8648ZM58.7089 17.6611L59.8048 15.988L58.7089 17.6611ZM31.2434 3.24338C41.473 9.00852 47.5753 12.759 57.613 19.3341L59.8048 15.988C49.7015 9.37006 43.5231 5.57241 33.2073 -0.24132L31.2434 3.24338ZM21.5004 7.7336C23.8341 6.39491 26.3874 4.93023 29.2519 3.26185L27.2387 -0.194603C24.3871 1.46629 21.8444 2.92487 19.5101 4.26392L21.5004 7.7336ZM2.81259 19.2514C8.89923 14.9634 14.0768 11.992 21.5004 7.7336L19.5101 4.26392C12.1023 8.51321 6.76924 11.571 0.508891 15.9814L2.81259 19.2514ZM2 23.3415C2 23.2769 2.003 23.2135 2.00878 23.1514L-1.97399 22.7806C-1.99123 22.9658 -2 23.1529 -2 23.3415H2ZM2 58.4427V23.3415H-2V58.4427H2ZM4 60.4427C2.89543 60.4427 2 59.5473 2 58.4427H-2C-2 61.7564 0.686287 64.4427 4 64.4427V60.4427ZM56.4494 60.4427H4V64.4427H56.4494V60.4427ZM58.4494 58.4427C58.4494 59.5473 57.554 60.4427 56.4494 60.4427V64.4427C59.7631 64.4427 62.4494 61.7564 62.4494 58.4427H58.4494ZM58.4494 23.3415V58.4427H62.4494V23.3415H58.4494ZM58.4386 23.1313C58.4457 23.1998 58.4494 23.2699 58.4494 23.3415H62.4494C62.4494 23.1324 62.4386 22.9252 62.4175 22.7205L58.4386 23.1313ZM0.508891 15.9814C-1.03787 17.0711 -2.10769 18.9389 -1.87547 21.0471L2.10048 20.6091C2.05207 20.1696 2.26406 19.6378 2.81259 19.2514L0.508891 15.9814ZM33.2073 -0.24132C31.3478 -1.28929 29.0748 -1.26402 27.2387 -0.194603L29.2519 3.26185C29.8696 2.90207 30.6291 2.89716 31.2434 3.24338L33.2073 -0.24132ZM58.3443 20.6421C58.2374 21.5959 58.382 22.5822 58.4386 23.1313L62.4175 22.7205C62.3335 21.9071 62.2738 21.495 62.3194 21.0876L58.3443 20.6421ZM-1.87547 21.0471C-1.82667 21.4901 -1.89349 21.916 -1.97399 22.7806L2.00878 23.1514C2.05993 22.602 2.20717 21.5777 2.10048 20.6091L-1.87547 21.0471ZM62.3194 21.0876C62.562 18.9228 61.4058 17.0368 59.8048 15.988L57.613 19.3341C58.181 19.7062 58.3905 20.23 58.3443 20.6421L62.3194 21.0876Z" fill="#E31E24" mask="url(#path-1-inside-1_20_178)"/>
<path d="M7.9502 27.6519C7.9502 25.995 9.29334 24.6519 10.9502 24.6519H49.4995C51.1563 24.6519 52.4995 25.995 52.4995 27.6519V61.4429H7.9502V27.6519Z" fill="white" stroke="#E31E24" stroke-width="2"/>
<path d="M7.9502 24.7422C7.9502 23.0853 9.29334 21.7422 10.9502 21.7422H49.4995C51.1563 21.7422 52.4995 23.0853 52.4995 24.7422V26.5306H7.9502V24.7422Z" fill="white" stroke="#E31E24" stroke-width="2"/>
<rect x="7.9502" y="53.7451" width="10.6817" height="7.69777" fill="white" stroke="#E31E24" stroke-width="2"/>
<rect x="18.0957" y="53.7451" width="10.6817" height="7.69777" fill="white" stroke="#E31E24" stroke-width="2"/>
<rect x="28.2412" y="53.7451" width="10.6817" height="7.69777" fill="white" stroke="#E31E24" stroke-width="2"/>
<rect x="18.0957" y="45.9868" width="10.6817" height="7.69777" fill="white" stroke="#E31E24" stroke-width="2"/>
<rect x="7.9502" y="38.2285" width="10.6817" height="7.69777" fill="white" stroke="#E31E24" stroke-width="2"/>
<rect x="7.9502" y="45.9868" width="10.6817" height="7.69777" fill="white" stroke="#E31E24" stroke-width="2"/>
<path d="M51.5767 37.5413C52.1256 37.0585 52.8319 36.7928 53.5629 36.794L85.2573 36.8478C86.9142 36.8507 88.255 38.1961 88.2522 39.8529L88.2202 58.717C88.2174 60.3738 86.872 61.7147 85.2151 61.7119L53.5207 61.6581C52.7897 61.6568 52.0843 61.3887 51.537 60.9041L40.8647 51.4539C39.5134 50.2574 39.517 48.1471 40.8724 46.9551L51.5767 37.5413Z" fill="white" stroke="#E31E24" stroke-width="2"/>
<circle cx="47.7677" cy="48.821" r="1.42444" transform="rotate(-19.9291 47.7677 48.821)" stroke="#E31E24" stroke-width="2"/>
<circle cx="63.6613" cy="47.1738" r="3.36399" transform="rotate(-20.3779 63.6613 47.1738)" stroke="#E31E24" stroke-width="2"/>
<circle cx="76.7003" cy="51.6411" r="3.36399" transform="rotate(-20.3779 76.7003 51.6411)" stroke="#E31E24" stroke-width="2"/>
<path d="M67.4434 57.0254L73.0361 41.844" stroke="#E31E24" stroke-width="2" stroke-linecap="round"/>
</svg>
