<svg width="87" height="83" viewBox="0 0 87 83" fill="none" xmlns="http://www.w3.org/2000/svg">
<rect x="2.86631" y="39.6055" width="68.2288" height="44.8739" rx="3" transform="rotate(-24.4616 2.86631 39.6055)" fill="white" stroke="#E31E24" stroke-width="2"/>
<path d="M17.247 71.2256L79.3486 42.9667L82.3035 49.4638C82.9894 50.972 82.3229 52.7509 80.8149 53.4372L24.1744 79.211C22.6664 79.8972 20.8878 79.2309 20.2019 77.7227L17.247 71.2256Z" stroke="#E31E24" stroke-width="2"/>
<path d="M14.4629 65.1025L76.5644 36.8437L82.304 49.4637C82.9899 50.9719 82.3234 52.7508 80.8154 53.4371L24.1749 79.2109C22.6669 79.8971 20.8883 79.2308 20.2024 77.7226L14.4629 65.1025Z" stroke="#E31E24" stroke-width="2"/>
<path d="M36.791 41.6454C37.0581 42.3433 37.1634 43.0083 37.1068 43.6402C37.0621 44.2677 36.8828 44.8448 36.5691 45.3718C36.2671 45.8941 35.8507 46.3654 35.3198 46.7856C34.7844 47.1939 34.1736 47.5293 33.4874 47.7918C32.7185 48.0861 31.9201 48.3034 31.0923 48.4439C30.2718 48.5679 29.4202 48.4869 28.5377 48.2007C28.3223 48.134 28.2325 48.0056 28.2683 47.8156C28.2884 47.7265 28.315 47.601 28.348 47.4392C28.381 47.2774 28.4118 47.1097 28.4403 46.936C28.4806 46.7578 28.5195 46.5938 28.5571 46.4438C28.5901 46.2819 28.6167 46.1565 28.6369 46.0674C28.6744 45.9174 28.7368 45.8325 28.8242 45.8126C28.9188 45.7764 29.0552 45.7785 29.2334 45.8188C29.7888 45.9589 30.3399 45.999 30.8865 45.939C31.445 45.8745 31.949 45.7562 32.3986 45.5842C33.203 45.2764 33.7548 44.8754 34.054 44.3812C34.3604 43.8706 34.4005 43.3196 34.1741 42.728C33.9614 42.172 33.6173 41.8222 33.1419 41.6786C32.6666 41.535 32.1627 41.5651 31.6303 41.7688C31.3701 41.8684 31.1462 41.9744 30.9586 42.0868C30.7711 42.1993 30.594 42.3213 30.4274 42.4528C30.268 42.5681 30.1155 42.701 29.9697 42.8517C29.8194 42.9906 29.6655 43.1377 29.5079 43.2929C29.3885 43.4064 29.2388 43.5112 29.0585 43.6073C28.8738 43.6915 28.6873 43.7358 28.499 43.74L27.81 43.8002C27.5017 43.8096 27.2708 43.7556 27.1173 43.638C26.9711 43.5041 26.8578 43.2965 26.7774 43.0154L25.5413 38.4025C25.412 37.923 25.4213 37.5397 25.5692 37.2526C25.7125 36.9537 25.9734 36.7318 26.3519 36.5869L32.5451 34.2172C32.6989 34.1584 32.8062 34.1376 32.8671 34.155C32.9398 34.1679 33.0124 34.2689 33.0848 34.4582L33.6212 35.8601C33.6801 36.0139 33.6913 36.1317 33.6547 36.2135C33.6137 36.2834 33.5222 36.3456 33.3802 36.3999L28.1986 38.3825L28.8151 40.7913C29.1557 40.5118 29.5203 40.2773 29.909 40.0879C30.2931 39.8867 30.6626 39.7182 31.0175 39.5824C31.6445 39.3425 32.2582 39.2094 32.8584 39.1831C33.4542 39.1451 34.0024 39.2133 34.5032 39.3879C35.0158 39.5579 35.4669 39.8329 35.8564 40.2128C36.2577 40.5882 36.5692 41.0657 36.791 41.6454ZM53.9665 35.582C54.1792 36.138 54.3065 36.6657 54.3484 37.1651C54.3903 37.6644 54.3386 38.1318 54.1932 38.5671C54.0597 38.9979 53.8199 39.3813 53.4737 39.7172C53.1276 40.0531 52.6765 40.3274 52.1204 40.5401C51.0321 40.9566 50.0949 40.9354 49.3091 40.4766C48.5187 40.006 47.9085 39.2088 47.4785 38.0849C47.2657 37.5289 47.1361 36.9953 47.0897 36.4841C47.0552 35.9684 47.1069 35.5011 47.2449 35.0821C47.3903 34.6467 47.6301 34.2633 47.9645 33.932C48.3106 33.5961 48.7617 33.3218 49.3177 33.109C49.8856 32.8917 50.4046 32.7949 50.8747 32.8184C51.3566 32.8374 51.7889 32.9569 52.1714 33.1767C52.5538 33.3965 52.8925 33.7145 53.1873 34.1306C53.4895 34.5304 53.7492 35.0142 53.9665 35.582ZM52.2875 36.2448C52.1698 35.9372 52.027 35.6528 51.8592 35.3915C51.7033 35.1257 51.5254 34.9089 51.3256 34.7413C51.1213 34.5617 50.8878 34.4477 50.6251 34.399C50.3741 34.3458 50.1008 34.3758 49.8051 34.489C49.5093 34.6022 49.2858 34.7623 49.1344 34.9694C48.995 35.1719 48.9068 35.4023 48.87 35.6605C48.8332 35.9187 48.8454 36.1989 48.9067 36.5009C48.968 36.8029 49.0575 37.1077 49.1752 37.4153C49.2929 37.7229 49.4298 38.0096 49.5857 38.2754C49.7417 38.5412 49.9218 38.7639 50.1261 38.9434C50.3377 39.1066 50.5631 39.217 50.8022 39.2747C51.0531 39.3279 51.3323 39.2956 51.6399 39.1779C51.9357 39.0648 52.1533 38.9069 52.2928 38.7043C52.4441 38.4972 52.5382 38.2646 52.575 38.0064C52.6073 37.7363 52.595 37.4562 52.5382 37.166C52.4887 36.8595 52.4052 36.5524 52.2875 36.2448ZM43.5293 34.1439C43.7421 34.7 43.8694 35.2276 43.9113 35.727C43.9532 36.2263 43.9014 36.6937 43.7561 37.129C43.6226 37.5599 43.3827 37.9432 43.0366 38.2791C42.6904 38.615 42.2393 38.8893 41.6833 39.1021C40.5949 39.5185 39.6578 39.4974 38.8719 39.0386C38.0816 38.5679 37.4714 37.7707 37.0413 36.6468C36.8286 36.0908 36.699 35.5572 36.6526 35.046C36.618 34.5303 36.6698 34.063 36.8078 33.644C36.9531 33.2086 37.193 32.8253 37.5273 32.4939C37.8735 32.158 38.3246 31.8837 38.8806 31.671C39.4484 31.4537 39.9674 31.3568 40.4375 31.3804C40.9195 31.3994 41.3517 31.5188 41.7342 31.7386C42.1167 31.9585 42.4554 32.2764 42.7502 32.6925C43.0523 33.0923 43.3121 33.5761 43.5293 34.1439ZM41.8503 34.8067C41.7326 34.4992 41.5899 34.2147 41.4221 33.9534C41.2661 33.6876 41.0883 33.4709 40.8885 33.3032C40.6842 33.1237 40.4506 33.0096 40.1879 32.9609C39.937 32.9078 39.6637 32.9378 39.3679 33.0509C39.0722 33.1641 38.8486 33.3242 38.6973 33.5313C38.5578 33.7339 38.4697 33.9642 38.4328 34.2225C38.396 34.4807 38.4083 34.7608 38.4696 35.0628C38.5309 35.3648 38.6204 35.6697 38.7381 35.9772C38.8558 36.2848 38.9926 36.5715 39.1486 36.8373C39.3045 37.1032 39.4847 37.3258 39.689 37.5053C39.9006 37.6685 40.1259 37.7789 40.365 37.8366C40.6159 37.8898 40.8952 37.8575 41.2027 37.7398C41.4985 37.6267 41.7161 37.4688 41.8556 37.2663C42.0069 37.0592 42.101 36.8265 42.1378 36.5683C42.1701 36.2983 42.1579 36.0182 42.1011 35.728C42.0516 35.4214 41.968 35.1143 41.8503 34.8067ZM44.954 43.3433C44.9355 43.4724 44.8999 43.5742 44.847 43.6487C44.7942 43.7232 44.7027 43.7853 44.5725 43.8351L43.845 44.1135C43.7385 44.1542 43.6562 44.1518 43.5981 44.1063C43.5445 44.0725 43.5291 43.997 43.5521 43.8797L46.1467 28.8093C46.1652 28.6802 46.1853 28.5911 46.2072 28.542C46.2364 28.4766 46.3102 28.4213 46.4285 28.376L47.2625 28.0569C47.3335 28.0297 47.4017 28.0307 47.4671 28.0599C47.5326 28.0892 47.5583 28.1742 47.5445 28.3152L44.954 43.3433Z" fill="#E31E24"/>
<path d="M18.6789 22.67C20.1419 24.1837 22.9189 25.8004 25.7493 26.6374C27.1547 27.053 28.5155 27.2584 29.6851 27.1892C30.8554 27.12 31.7541 26.7828 32.36 26.1972C32.9659 25.6115 33.3334 24.7248 33.4424 23.5575C33.5513 22.391 33.3922 21.024 33.0246 19.6052C32.2842 16.7481 30.7627 13.9178 29.2997 12.4042C27.8442 10.8983 25.2419 9.45254 22.5915 8.78229C19.8849 8.09783 17.5412 8.31448 16.2662 9.54696C14.9911 10.7794 14.6949 13.1144 15.287 15.8427C15.8669 18.5143 17.2234 21.1642 18.6789 22.67Z" stroke="#E31E24" stroke-width="2"/>
<path d="M35.159 11.3256C34.2078 13.2759 33.3963 16.3691 33.185 19.1414C33.0795 20.5261 33.1292 21.766 33.3515 22.7101C33.5813 23.6858 33.94 24.1314 34.2657 24.2903C34.5915 24.4491 35.1635 24.4574 36.0738 24.0377C36.9545 23.6316 37.9622 22.9073 38.9883 21.9715C41.0427 20.0981 42.9803 17.5542 43.9314 15.6038C44.8796 13.6596 45.5873 10.786 45.6992 8.23894C45.7551 6.967 45.6592 5.83814 45.4078 4.97711C45.1519 4.10086 44.7843 3.65614 44.4163 3.47663C44.0482 3.29713 43.4715 3.28135 42.6234 3.61925C41.7902 3.95127 40.8416 4.57076 39.8738 5.39795C37.9356 7.0544 36.1072 9.38134 35.159 11.3256Z" stroke="#E31E24" stroke-width="2"/>
</svg>
