<svg data-v-1adaa390="" xmlns="http://www.w3.org/2000/svg" shape-rendering="geometricPrecision" viewBox="0 0 24 24" width="24" height="24" fill="#999999" stroke="none" stroke-width="0"><path d="M.066 12.362a1.018 1.018 0 0 1 0-.725c.016-.042.039-.078.06-.118.022-.042.036-.088.065-.128l7.201-9.904A1.038 1.038 0 0 1 8.84 1.26c.463.336.566.984.229 1.445l-6.006 8.259h19.896a1.036 1.036 0 0 1 0 2.07H3.061l6.008 8.259a1.033 1.033 0 0 1-.835 1.644c-.323 0-.638-.147-.841-.427L.192 12.607c-.029-.04-.043-.086-.065-.128-.022-.038-.045-.074-.061-.117z"></path></svg>