<svg width="64" height="55" viewBox="0 0 64 55" fill="none" xmlns="http://www.w3.org/2000/svg">
<path d="M1 7.99999C1 4.134 4.13401 1 8 1H30.8C34.1137 1 36.8 3.68629 36.8 7V47.1091H7.99999C4.134 47.1091 1 43.9751 1 40.1091V7.99999Z" fill="white" stroke="#E31E24" stroke-width="2"/>
<path d="M37.6543 14.7451H49.4593C50.0938 14.7451 50.6906 15.0461 51.0677 15.5563L59.3172 26.7174C59.5716 27.0616 59.7088 27.4782 59.7088 27.9062V45.1088C59.7088 46.2133 58.8134 47.1088 57.7088 47.1088H37.6543V14.7451Z" fill="white" stroke="#E31E24" stroke-width="2"/>
<path d="M62.9998 47.9639C63.5521 47.9639 63.9998 47.5162 63.9998 46.9639C63.9998 46.4116 63.5521 45.9639 62.9998 45.9639V47.9639ZM37.7998 47.9639H62.9998V45.9639H37.7998V47.9639Z" fill="#E31E24"/>
<path d="M59.5634 29.6367C60.1157 29.6367 60.5634 29.189 60.5634 28.6367C60.5634 28.0844 60.1157 27.6367 59.5634 27.6367V29.6367ZM37.7998 29.6367H59.5634V27.6367H37.7998V29.6367Z" fill="#E31E24"/>
<circle cx="14.8912" cy="46.9635" r="7.01818" fill="white" stroke="#E31E24" stroke-width="2"/>
<circle cx="46.9635" cy="46.9635" r="7.01818" fill="white" stroke="#E31E24" stroke-width="2"/>
</svg>
