<svg width="87" height="60" viewBox="0 0 87 60" fill="none" xmlns="http://www.w3.org/2000/svg">
<path d="M41.5543 12.3509H27.3988C25.742 12.3509 24.3988 11.0077 24.3988 9.35085V6.61429C24.3988 4.03634 21.3621 2.65898 19.4225 4.35724L2.57772 19.1066C1.21277 20.3017 1.21277 22.4255 2.57772 23.6207L19.4225 38.37C21.3621 40.0683 24.3988 38.6909 24.3988 36.113V33.0426C24.3988 31.3858 25.742 30.0426 27.3988 30.0426H59.0909" stroke="#E31E24" stroke-width="2"/>
<path d="M44.809 47.6491H58.9645C60.6213 47.6491 61.9645 48.9923 61.9645 50.6491V53.3857C61.9645 55.9637 65.0012 57.341 66.9407 55.6428L83.7856 40.8934C85.1505 39.6983 85.1505 37.5745 83.7856 36.3793L66.9407 21.63C65.0012 19.9317 61.9645 21.3091 61.9645 23.887V26.9574C61.9645 28.6142 60.6213 29.9574 58.9645 29.9574H27.2724" stroke="#E31E24" stroke-width="2"/>
</svg>
