<svg xmlns="http://www.w3.org/2000/svg" xmlns:xlink="http://www.w3.org/1999/xlink" width="24" height="24" viewBox="0 0 24 24"><defs><clipPath id="a"><rect width="24" height="24" fill="none"/></clipPath></defs><g clip-path="url(#a)"><path d="M24,12A12,12,0,1,1,12,0,12,12,0,0,1,24,12" fill="#e31e24"/><path d="M10,5.93A2.92,2.92,0,0,0,5,8a2.92,2.92,0,1,0,5-2.07M9,9.08A1.52,1.52,0,0,1,6.38,8a1.48,1.48,0,0,1,.45-1.07A1.5,1.5,0,0,1,9,6.93,1.48,1.48,0,0,1,9.42,8,1.52,1.52,0,0,1,9,9.08" fill="#fff"/><path d="M15.51,5.4,7.31,17.83a.7.7,0,0,0,.21,1,.69.69,0,0,0,1-.2l8.2-12.43a.7.7,0,0,0-.21-1,.69.69,0,0,0-1,.2" fill="#fff"/><path d="M18.17,13.93A2.93,2.93,0,0,0,14,18.07,2.92,2.92,0,0,0,19,16a2.91,2.91,0,0,0-.85-2.07m-1,3.14a1.52,1.52,0,0,1-2.14,0A1.48,1.48,0,0,1,14.58,16a1.52,1.52,0,1,1,3,0,1.48,1.48,0,0,1-.45,1.07" fill="#fff"/></g></svg>