<svg xmlns="http://www.w3.org/2000/svg" viewBox="0 0 810.74 356.24"><circle cx="645.7" cy="212.02" r="178.12" transform="translate(26.12 484.78) rotate(-45)" fill="#e31e24"/><rect y="24.34" width="808.74" height="85" rx="22.62" fill="#2b2a29"/><path d="M558.43,140.13c0,2.61-1.86,4.57-2.89,6.7l-1.95,4.59c-.7,1.55-1.58,2.77-2.21,4.35l-5.77,13.78a4,4,0,0,0-.29,1.21c-1,6.59-1.11,3-3.86,5.75l-.35.36-1.49,1.76-.11.13c-1.84,2.29-.55,1.75-2.06,4.74-1.05,2.09-.53,5.31-.55,7.64,0,.46,0,1.21,0,1.64a1.23,1.23,0,0,0,.13.53c0,.06.09.2.11.26a6.75,6.75,0,0,1-.73,6.22c-.6.75-.1-.17-.61,1l-1,4.46-1.94,5.28a8.12,8.12,0,0,1-.93,2.34,17.47,17.47,0,0,0-3.55.19,3.39,3.39,0,0,0-.57.14l-1.4.7-.29.18-1.24.86a4.48,4.48,0,0,1-2,.58c-.34,0-.67.2-1.11.3-2.12.45-2.84-.11-5,1.54l-2.62,2.52-.13.11-.23.24c-.57.64-1,1.63-1.9,2.08l-3.5,1.17a6.42,6.42,0,0,0-3.83,4.13h-.7a2.16,2.16,0,0,0-.56-1.08c-.4-.56-.67-1.15-1.41-1.39-1.45-.47-7-1-8.41-.19l-2.94,3.38a6.74,6.74,0,0,0-1.46,3.46c-.21,1-.73,2.22-.9,3.31v.46s.09-.1.27.21l.09.14.1.14,3.7,5.42a.69.69,0,0,0,.11.13l.1.13c.2.2-.28,0,.71.46s2.1,1.93,3.81,2.28a11,11,0,0,1,4.4,1.91l.42.29c2.47,1.7,1-.84,4.08,3.41-2.07,1.09.22-.47-2,.07-.62.15,0,0-.49.23l-.42.29a2,2,0,0,0-1,1.34l.63,2.76c.52,1.2.22,2.39.81,3.41l.19.28,1.36,1.92c-.52,1.42-1.3,1.43.57,3.88l3.65,4.3a11.48,11.48,0,0,1,1.53,1.51l.54.87c.41.65,1.2,1.3,1.2,2.07-.62.25-.18-.09-.47.47-.46.9-.23,2.32-.23,3.28l4.76,2.49.13.1c.14.1.36.28.54.4s1.07.56,1.25.62a13.23,13.23,0,0,0,6.9.37,8.79,8.79,0,0,0,2.25-1l.15-.09a3.42,3.42,0,0,0,1.15-1.18c1.14-1.79.36-8.12-1.22-10.35l-1.17-1.64a4.05,4.05,0,0,1,1.1.07l.68.25.17.07,1.56.78,2.43,3.65c.43,1.22.61,8.55.61,10.16,0,2.9-1.43,5-1.47,7.65l.3,2.17h2.34l2.29-.52c.92-.39.6-.84.42-2-.42-2.68-.82-10.73-.37-13.41l.7-2.34a4.13,4.13,0,0,1,2.19.86c1,.69.74,4,.62,5a17.5,17.5,0,0,0-.47,3.75c0,2.12.41,3.36.47,4.89a26.6,26.6,0,0,0,.38,5.15l.51,1.47c0,.26,0,.37.08.62a68.71,68.71,0,0,1,.44,8.46,10.5,10.5,0,0,1-.58,2.47l-.57,1.89s0,.09-.05.13,0,.09-.06.13a13.28,13.28,0,0,1-1.06,2.2l-.09.14-.1.15-.69,1.39-.06.16c-.42,1.16-.66,2.34-1.2,3.5-.68,1.48-3.27,7.33-4.44,8a22.43,22.43,0,0,1-2.84.9l-.17.07-.16.07-3.18,1.27c-2.62,1-2.69.65-5.83.72s-3,2.08-3.73,2.82l-.94.47V333a8.32,8.32,0,0,0,2.58.7,41.44,41.44,0,0,1,8.8,1.49,5.94,5.94,0,0,1,1.14.5l6.23,3.13c.45.17.13.05.7.24,2.26.71,2.58.49,5.13.49,1.49-1.93,2.19-2.28,1.35-5.09l-1.12-3.1c-.3-1.06,2.08-5.08,2.57-6.09a10.77,10.77,0,0,1,.74-1.37,1.13,1.13,0,0,1,.1-.13l.84-1.28.1-.13.11-.13,2.58-3.36.07-.1,2.29-3.29a10.16,10.16,0,0,1,1.48-2c1.24-1.33.2-1.49,2.46-1.52.28.7,1,.72,2.42,1.32,1.64.65,2,.51,3.66.08.45-1.92,0-4.58.37-6.65a42,42,0,0,0,.33-9.5l-.46-3.51.7-6.31L560.77,273a2.46,2.46,0,0,0,1.59-1.82l4.1-18c.73-2.56,0-4-.77-6.39l-.13-.34c0-.06,0-.12,0-.18-.11-.37-.13-.6-.23-.94-1.07-3.68-1.71-4.42-1.7-8.37a20.27,20.27,0,0,0-.41-4c-.1-.72,0-1.34-.06-2L562,226a.85.85,0,0,0-.06-.17l-.61-1.26a6.69,6.69,0,0,0-1.47-1.58v-4c1.78.85,3.91-.37,5.27-1.52,1.12-.94,1.28-2.73,1.28-4.1a6.51,6.51,0,0,0-1.4-3.05l-.2-.27-.09-.14-1-1.14a9.16,9.16,0,0,0-3.43-1.72l.22-1.42.07-.16,1.26-2.92a.53.53,0,0,1,0-.12.69.69,0,0,0,.05-.13l1.26-2.65c.91-1.88.79-4.16.84-6.42.05-2.1,1.28-4.63-.09-6.43a5.8,5.8,0,0,1-.84-2.21c-.94,0-1.19.24-1.75.09l-1.05-1.26c-.2-.55.46-1.62.72-2.11l1.25-3.41c2.42-7.37.39-10.16.8-12.06l3-13.64c.26-.83.5-1.14.76-1.81,1.2-3.14,1-2.8,3.73-4.69,1.25-.86,2.86-.65,4.33-1.28l2.73-2.89c.38-1-.37-2.05-.46-3.05a53.11,53.11,0,0,1,.23-6.78,30.79,30.79,0,0,0-1.1-7.1l-4.75-3.43c-1.89,0-3.78,2.13-4.65,3.31a26.82,26.82,0,0,1-3.83,4.36,16.66,16.66,0,0,0-4.67,7.5C558,137.52,558.43,138.69,558.43,140.13Z" transform="translate(-13.08 -33.9)" fill="#fefefe" fill-rule="evenodd"/><path d="M18.7,205.83q0-22.28,23.76-22.27H83.23v21.19H49.75q-7.83,0-7.83,7.83a20.27,20.27,0,0,0,.27,3.18q.27,1.68.81,3.84l12,48.6q2,8.24,4.45,11.68c1.62,2.3,3.2,3.44,4.73,3.44h19v21.2H63.79a62.93,62.93,0,0,1-8.44-.54,15,15,0,0,1-7.69-3.71q-3.72-3.18-7.16-10T33.82,270.9L21.27,222.57q-1.21-4.73-1.89-8.91a49.37,49.37,0,0,1-.68-7.83ZM137.5,284q3.1,0,5.87-3.78t5.2-12.83l13.1-49.54a23.45,23.45,0,0,0,.81-5.54q0-7.69-9.18-7.69H122.38q-7.83,0-7.83,7.83a30.35,30.35,0,0,0,1.08,7l12.15,48.6q2.16,9.18,4.79,12.55T137.5,284Zm48.2-79.11a56.6,56.6,0,0,1-2.3,14.71l-13.9,51.71q-3.65,13.37-7.29,20.79T154.71,303a15.6,15.6,0,0,1-7.89,4.19,53,53,0,0,1-17.22-.07,16.23,16.23,0,0,1-8.16-4.32q-3.91-3.57-7.63-11.07t-7.22-21L93.9,222.44a68.2,68.2,0,0,1-2.43-16.74q0-22.27,23.62-22.28h45.09q25.51,0,25.52,21.47Zm75.73-21.06h21.2V304.52h-21.2V247H215.8v57.51H194.61V183.83H215.8v42h45.63v-42Zm30.11,22q0-22.28,23.76-22.27h40.77v21.19H322.59q-7.83,0-7.83,7.83a20.27,20.27,0,0,0,.27,3.18q.27,1.68.81,3.84l12,48.6q2,8.24,4.46,11.68c1.62,2.3,3.19,3.44,4.72,3.44h19v21.2H336.63a62.82,62.82,0,0,1-8.44-.54,15,15,0,0,1-7.7-3.71q-3.71-3.18-7.15-10t-6.68-19.38L294.1,222.57q-1.22-4.73-1.89-8.91a49.3,49.3,0,0,1-.67-7.83Zm95.85-22,34.69,61.42,19.58-61.42h21.19L424.38,304.52h-21.2l10.13-32-48.74-88.69Z" transform="translate(-13.08 -33.9)" fill="#2b2a29" fill-rule="evenodd"/><path d="M695.21,304.38H581.27l9.18-21.06h11.48A136.07,136.07,0,0,1,614.15,242a143.6,143.6,0,0,1,26.12-37.2h-30l10.26-21.19h62.91v99.76h11.74v21.06Zm-33.34-21.06v-78a211.46,211.46,0,0,0-14.58,17.82A134.57,134.57,0,0,0,636,241.47a125.4,125.4,0,0,0-8,19.71,151.3,151.3,0,0,0-4.93,21.74.28.28,0,0,1-.06.2.26.26,0,0,0-.07.2Zm88.56.68q3.11,0,5.87-3.78t5.2-12.83l13.09-49.54a23.45,23.45,0,0,0,.81-5.54q0-7.69-9.18-7.69H735.31q-7.83,0-7.83,7.83a30.35,30.35,0,0,0,1.08,7l12.15,48.6q2.16,9.18,4.79,12.55t4.93,3.38Zm48.19-79.11a56.54,56.54,0,0,1-2.29,14.71l-13.91,51.71q-3.64,13.37-7.29,20.79T767.64,303a15.63,15.63,0,0,1-7.9,4.19,52.9,52.9,0,0,1-17.21-.07,16.26,16.26,0,0,1-8.17-4.32q-3.92-3.57-7.62-11.07t-7.23-21l-12.69-48.33a68.2,68.2,0,0,1-2.43-16.74q0-22.27,23.63-22.28h45.09Q798.63,183.42,798.62,204.89Z" transform="translate(-13.08 -33.9)" fill="#2b2a29" fill-rule="evenodd"/><path d="M33.73,89.56q0-7.12,7.59-7.12h13v6.78H43.65a2.21,2.21,0,0,0-2.5,2.5,6.13,6.13,0,0,0,.08,1c.06.36.15.77.26,1.23l3.84,15.53a11.75,11.75,0,0,0,1.42,3.73c.52.74,1,1.1,1.51,1.1h6.09v6.78H48.13a19.28,19.28,0,0,1-2.69-.18A4.76,4.76,0,0,1,43,119.74a10.46,10.46,0,0,1-2.29-3.19,32.51,32.51,0,0,1-2.13-6.2l-4-15.44c-.26-1-.46-2-.61-2.85a16.1,16.1,0,0,1-.21-2.5ZM74.36,95.9l0,6.47H64.1v11.91H79.33v6.82h-22V82.49h22V89H64.1V95.9Zm43.19-13.37-3.15,6.81h-11V121.1H96.63V89.34H82.35l3.23-6.77h.13v0Zm9.49,0v11l12.64,12.34A23.57,23.57,0,0,1,141.6,108a26.58,26.58,0,0,1,1.79,2.46,14.84,14.84,0,0,1,1.34,2.59,7,7,0,0,1,.52,2.52,4.45,4.45,0,0,1-.56,2.18,4.72,4.72,0,0,1-1.86,1.75,11.75,11.75,0,0,1-3.41,1.17,27.51,27.51,0,0,1-5.26.43H120.27V82.53Zm8.37,32.05q2.37,0,2.37-1.77a1.88,1.88,0,0,0-.32-1,5.65,5.65,0,0,0-.84-1L127,101.64v12.94Zm56-25a16.1,16.1,0,0,1-.21,2.5c-.15.89-.35,1.84-.61,2.85l-4,15.44a32.51,32.51,0,0,1-2.13,6.2,10.46,10.46,0,0,1-2.29,3.19,4.76,4.76,0,0,1-2.46,1.18,19.32,19.32,0,0,1-2.7.18h-6.21v-6.78h6.09c.48,0,1-.36,1.51-1.1a11.75,11.75,0,0,0,1.42-3.73l1.68-6.9h-7.63V96.12H183L183.6,94c.11-.46.2-.87.26-1.23a7.45,7.45,0,0,0,.08-1,2.21,2.21,0,0,0-2.5-2.5h-10.7V82.44h13q7.59,0,7.59,7.12Zm25.16-7h6.29a42.2,42.2,0,0,1-4.89,9.86,48.66,48.66,0,0,1-7.06,8.21l14.33,20.5h-6.78l-11.77-16.83c-.72.63-1.46,1.22-2.23,1.77s-1.58,1.09-2.48,1.64V121.1h-6.77V82.53h6.77v18.59a43.56,43.56,0,0,0,9-8.26,32.81,32.81,0,0,0,5.59-10.33ZM235.07,106l12.77-18.89V82.53h6.77V121.1h-6.77V97.33l-12.77,18.76v5h-6.78V82.53h6.78V106Zm44.3-23.42h6.78V121.1h-6.78V89.3H264.79v31.8H258V82.53h21.35ZM295.46,106l12.77-18.89V82.53H315V121.1h-6.78V97.33l-12.77,18.76v5h-6.77V82.53h6.77V106Zm23,15.15V82.53h13.89a26.72,26.72,0,0,1,5.26.43A12.07,12.07,0,0,1,341,84.12a4.79,4.79,0,0,1,1.86,1.75,4.48,4.48,0,0,1,.56,2.18,6.93,6.93,0,0,1-.52,2.52,14.84,14.84,0,0,1-1.34,2.59,24.85,24.85,0,0,1-1.79,2.46,23.57,23.57,0,0,1-1.92,2.09l-12.64,12.34v11ZM325.23,89V102l9.58-9.18a5.65,5.65,0,0,0,.84-1,1.83,1.83,0,0,0,.32-1Q336,89,333.6,89Zm35.68,25.5a2.42,2.42,0,0,0,1.88-1.21,13,13,0,0,0,1.66-4.1l4.18-15.83a7.63,7.63,0,0,0,.26-1.77c0-1.64-1-2.46-2.93-2.46h-9.88a2.22,2.22,0,0,0-2.51,2.5,9.76,9.76,0,0,0,.35,2.25l3.88,15.53a11.21,11.21,0,0,0,1.53,4c.57.72,1.09,1.08,1.58,1.08Zm15.4-25.28a18,18,0,0,1-.73,4.7l-4.45,16.52a38,38,0,0,1-2.33,6.65,11.63,11.63,0,0,1-2.39,3.49,5,5,0,0,1-2.52,1.34,16.81,16.81,0,0,1-2.68.22,16.09,16.09,0,0,1-2.82-.24,5.21,5.21,0,0,1-2.61-1.38,11.84,11.84,0,0,1-2.44-3.54,36.43,36.43,0,0,1-2.31-6.71L347,94.87a22.2,22.2,0,0,1-.77-5.35q0-7.12,7.55-7.12h14.41q8.14,0,8.15,6.86ZM379,121.1V82.53h13.89a28.59,28.59,0,0,1,5.17.39A11.12,11.12,0,0,1,401.38,84a4.28,4.28,0,0,1,1.76,1.61,4,4,0,0,1,.52,2A11.4,11.4,0,0,1,402.09,93a24,24,0,0,1-4.34,5.63l4.7,8.11a19,19,0,0,1,1.88,4.14,12.5,12.5,0,0,1,.58,3.58,6.16,6.16,0,0,1-6.42,6.65Zm6.77-11v4.27h11.3a2.38,2.38,0,0,0,1.62-.45,1.54,1.54,0,0,0,.5-1.19,4,4,0,0,0-.78-2l-5-8.07-7.63,7.46Zm0-21V102l9.58-9.18a6.31,6.31,0,0,0,.86-1,1.78,1.78,0,0,0,.34-1c0-1.18-.8-1.77-2.41-1.77Zm36.15,25.5a2.42,2.42,0,0,0,1.88-1.21,13,13,0,0,0,1.66-4.1l4.18-15.83a7.12,7.12,0,0,0,.26-1.77c0-1.64-1-2.46-2.93-2.46h-9.88a2.21,2.21,0,0,0-2.5,2.5,9.66,9.66,0,0,0,.34,2.25l3.88,15.53a11.18,11.18,0,0,0,1.54,4c.56.72,1.08,1.08,1.57,1.08Zm15.4-25.28a18,18,0,0,1-.73,4.7l-4.44,16.52a39.74,39.74,0,0,1-2.33,6.65,11.82,11.82,0,0,1-2.4,3.49,5,5,0,0,1-2.52,1.34,16.81,16.81,0,0,1-2.68.22,16.09,16.09,0,0,1-2.82-.24,5.21,5.21,0,0,1-2.61-1.38,11.84,11.84,0,0,1-2.44-3.54,36.43,36.43,0,0,1-2.31-6.71l-4-15.44a21.77,21.77,0,0,1-.78-5.35q0-7.12,7.55-7.12h14.41q8.14,0,8.15,6.86ZM448,108.72a13.69,13.69,0,0,1-2.42-.2,3.13,3.13,0,0,1-1.9-1.23,9.09,9.09,0,0,1-1.38-3.3,39.22,39.22,0,0,1-.82-6.41l-1-15h7l.95,14.19a12.74,12.74,0,0,0,.67,3.88c.33.78.72,1.21,1.18,1.3h9.32V82.57h6.78v38.57h-6.78V108.72Zm43.14-26.19h6.77V121.1h-6.77V102.72H476.53V121.1h-6.78V82.53h6.78V96h14.58V82.53Zm16.52,0v11l12.64,12.34a20.88,20.88,0,0,1,1.92,2.09,24.85,24.85,0,0,1,1.79,2.46,14.84,14.84,0,0,1,1.34,2.59,6.81,6.81,0,0,1,.52,2.52,4.45,4.45,0,0,1-.56,2.18,4.72,4.72,0,0,1-1.86,1.75,11.75,11.75,0,0,1-3.41,1.17,27.51,27.51,0,0,1-5.26.43H500.86V82.53ZM516,114.58q2.37,0,2.37-1.77a1.8,1.8,0,0,0-.32-1,5.24,5.24,0,0,0-.84-1l-9.58-9.19v12.94Zm11.48-32h6.77v38.57h-6.77V82.57Zm31.27,0h6.78L555.78,100l11.69,21.06H560.7l-8.29-15-8.28,15h-6.77L549,100l-9.75-17.51H546L552.41,94l6.34-11.43Zm67.82,44.87-5.52-.09V121.1H593.1V82.53h6.77v31.79h14.58V82.53h6.77l.13,31.41h5.22V127.4Zm20.28-31.5,0,6.47H636.58v11.91h15.23v6.82h-22V82.49h22V89H636.58V95.9Zm29.77-13.37h6.77V121.1h-6.77V102.72H662V121.1h-6.78V82.53H662V96h14.58V82.53Zm44.52,0L718,89.34H707V121.1h-6.78V89.34H685.94l3.23-6.77h.13v0Zm2.72,38.57V82.53h13.89A26.72,26.72,0,0,1,743,83a12.07,12.07,0,0,1,3.41,1.16,4.69,4.69,0,0,1,1.85,1.75,4.38,4.38,0,0,1,.57,2.18,6.93,6.93,0,0,1-.52,2.52A14.84,14.84,0,0,1,747,93.16a26.58,26.58,0,0,1-1.79,2.46,23.57,23.57,0,0,1-1.92,2.09l-12.64,12.34v11ZM730.63,89V102l9.58-9.18a5.65,5.65,0,0,0,.84-1,1.91,1.91,0,0,0,.32-1Q741.37,89,739,89Zm35.68,25.5a2.4,2.4,0,0,0,1.87-1.21,13,13,0,0,0,1.67-4.1L774,93.4a7.63,7.63,0,0,0,.26-1.77c0-1.64-1-2.46-2.93-2.46h-9.88a2.22,2.22,0,0,0-2.51,2.5,9.76,9.76,0,0,0,.35,2.25l3.88,15.53a11.21,11.21,0,0,0,1.53,4c.56.72,1.09,1.08,1.58,1.08Zm15.4-25.28A18.43,18.43,0,0,1,781,94l-4.45,16.52a38,38,0,0,1-2.33,6.65,11.63,11.63,0,0,1-2.39,3.49,4.94,4.94,0,0,1-2.53,1.34,16.59,16.59,0,0,1-2.67.22,16.29,16.29,0,0,1-2.83-.24,5.29,5.29,0,0,1-2.61-1.38,12,12,0,0,1-2.43-3.54,36.43,36.43,0,0,1-2.31-6.71l-4.06-15.44a22.2,22.2,0,0,1-.77-5.35q0-7.12,7.55-7.12h14.41q8.15,0,8.15,6.86Zm2.67,31.84V82.53h13.9a28.59,28.59,0,0,1,5.17.39A11,11,0,0,1,806.77,84a4.25,4.25,0,0,1,1.77,1.61,4,4,0,0,1,.52,2A11.4,11.4,0,0,1,807.49,93a24,24,0,0,1-4.34,5.63l4.7,8.11a19,19,0,0,1,1.88,4.14,12.5,12.5,0,0,1,.58,3.58,6.41,6.41,0,0,1-1.85,4.92,6.48,6.48,0,0,1-4.58,1.73Zm6.78-11v4.27h11.3a2.38,2.38,0,0,0,1.62-.45,1.53,1.53,0,0,0,.49-1.19,4,4,0,0,0-.77-2l-5-8.07-7.63,7.46Zm0-21V102l9.57-9.18a5.9,5.9,0,0,0,.87-1,1.78,1.78,0,0,0,.34-1c0-1.18-.8-1.77-2.41-1.77Z" transform="translate(-13.08 -33.9)" fill="#fefefe" fill-rule="evenodd"/></svg>