<svg xmlns="http://www.w3.org/2000/svg" width="154.08" height="67.7" viewBox="0 0 154.08 67.7"><circle cx="327.92" cy="261.01" r="33.85" transform="translate(-271.63 182.52) rotate(-59.3)" fill="#e31e24"/><rect y="4.63" width="153.7" height="16.15" rx="4.3" fill="#fff"/><path d="M311.33,247.35a3,3,0,0,1-.54,1.27l-.38.88c-.13.29-.3.52-.42.82l-1.09,2.62a.74.74,0,0,0-.06.23c-.19,1.25-.21.57-.73,1.09l-.07.07-.28.34,0,0c-.35.44-.11.33-.39.9a3.73,3.73,0,0,0-.11,1.46c0,.08,0,.23,0,.31a.41.41,0,0,0,0,.1s0,0,0,.05a1.29,1.29,0,0,1-.14,1.18c-.11.14,0,0-.11.19l-.18.85-.37,1a1.85,1.85,0,0,1-.18.44,3.11,3.11,0,0,0-.68,0l-.1,0-.27.14-.05,0-.24.16a.77.77,0,0,1-.38.11l-.21.06c-.41.09-.54,0-.95.29l-.5.48,0,0,0,.05c-.11.12-.2.31-.36.39l-.67.23a1.19,1.19,0,0,0-.72.78H301a.35.35,0,0,0-.1-.2c-.08-.11-.13-.22-.27-.27a3.46,3.46,0,0,0-1.6,0l-.56.64a1.28,1.28,0,0,0-.28.66c0,.19-.13.42-.17.63h0v.08s0,0,.05,0l0,0,0,0,.7,1,0,0,0,0s-.05,0,.14.08.4.37.72.44a2,2,0,0,1,.84.36l.08.05c.47.33.19-.16.77.65-.39.21.05-.09-.38,0-.12,0,0,0-.09,0l-.08.05a.38.38,0,0,0-.19.26l.12.52c.1.23,0,.46.15.65l0,0,.25.37c-.09.27-.24.27.11.74l.7.81a4,4,0,0,1,.29.29l.1.17c.08.12.23.24.23.39s0,0-.09.09a1.62,1.62,0,0,0,0,.62l.91.48h0l.11.08.23.12a2.58,2.58,0,0,0,1.32.07,2,2,0,0,0,.42-.19l0,0a.61.61,0,0,0,.22-.23,2.65,2.65,0,0,0-.23-2l-.22-.31a.76.76,0,0,1,.21,0l.13.05h0l.29.15.46.69a13.25,13.25,0,0,1,.12,1.93c0,.55-.27,1-.28,1.46l.06.41h.44l.44-.1c.17-.07.11-.16.08-.38a12.8,12.8,0,0,1-.07-2.55l.13-.44a.85.85,0,0,1,.42.16c.18.14.14.76.12,1a2.79,2.79,0,0,0-.09.71,9.17,9.17,0,0,0,.09.93,4.53,4.53,0,0,0,.07,1l.09.28c0,.05,0,.07,0,.12a12.4,12.4,0,0,1,.08,1.61,1.76,1.76,0,0,1-.11.47l-.11.36v0l0,0a1.74,1.74,0,0,1-.2.41l0,0v0l-.13.26,0,0c-.08.22-.12.45-.22.67a6.06,6.06,0,0,1-.85,1.51,4.26,4.26,0,0,1-.54.17l0,0h0l-.6.24a2.48,2.48,0,0,1-1.11.14c-.6,0-.58.39-.71.53l-.18.09V284a1.67,1.67,0,0,0,.49.13,7.88,7.88,0,0,1,1.67.28l.22.1,1.18.59.14,0a2.38,2.38,0,0,0,1,.09c.28-.37.42-.43.26-1l-.22-.59c-.05-.2.4-1,.49-1.15s.09-.18.14-.26l0,0,.16-.24,0,0,0,0,.49-.64,0,0,.43-.62a1.75,1.75,0,0,1,.28-.39c.24-.25,0-.28.47-.29.05.14.18.14.46.25a.82.82,0,0,0,.7,0c.08-.36,0-.87.07-1.26a8.46,8.46,0,0,0,.06-1.81l-.09-.67.13-1.2,0-2.71a.46.46,0,0,0,.3-.35l.78-3.42a1.71,1.71,0,0,0-.15-1.21l0-.07v0a1.16,1.16,0,0,1,0-.18,4.11,4.11,0,0,1-.33-1.59,3.87,3.87,0,0,0-.08-.77c0-.13,0-.25,0-.38l-.21-.95v0l-.12-.24a1.14,1.14,0,0,0-.28-.3v-.75a1,1,0,0,0,1.25-1.07,1.24,1.24,0,0,0-.27-.58l0-.05,0,0-.18-.21a1.6,1.6,0,0,0-.65-.33l0-.27,0,0,.23-.56v0l.24-.51a3,3,0,0,0,.16-1.22c0-.4.24-.88,0-1.22a1.18,1.18,0,0,1-.16-.42c-.18,0-.22,0-.33,0l-.2-.24c0-.11.09-.31.14-.4l.24-.65a5.2,5.2,0,0,0,.15-2.29l.56-2.6c.05-.15.1-.21.15-.34.23-.6.19-.53.71-.89.24-.17.54-.12.82-.24l.52-.55c.07-.19-.07-.39-.09-.58a9.28,9.28,0,0,1,.05-1.29,6.16,6.16,0,0,0-.21-1.35l-.9-.65c-.36,0-.72.4-.89.63a4.8,4.8,0,0,1-.73.82,3.17,3.17,0,0,0-.88,1.43A2.48,2.48,0,0,0,311.33,247.35Z" transform="translate(-207.69 -227.16)" fill="#fefefe" fill-rule="evenodd"/><path d="M208.76,259.84c0-2.82,1.5-4.24,4.51-4.24H221v4h-6.36a1.32,1.32,0,0,0-1.49,1.49,4.28,4.28,0,0,0,.05.6c0,.22.09.46.16.73l2.28,9.24a7.05,7.05,0,0,0,.85,2.22c.3.44.6.65.89.65H221v4h-3.69a11.79,11.79,0,0,1-1.61-.1,2.81,2.81,0,0,1-1.46-.71,6.14,6.14,0,0,1-1.36-1.89,19.76,19.76,0,0,1-1.27-3.69L209.25,263a15.62,15.62,0,0,1-.36-1.69,8.92,8.92,0,0,1-.13-1.49Zm22.58,14.85a1.43,1.43,0,0,0,1.11-.72,7.74,7.74,0,0,0,1-2.43l2.49-9.42a4.55,4.55,0,0,0,.15-1.05c0-1-.58-1.46-1.74-1.46h-5.88a1.31,1.31,0,0,0-1.49,1.48,5.65,5.65,0,0,0,.21,1.34l2.31,9.24a6.64,6.64,0,0,0,.91,2.38,1.32,1.32,0,0,0,.94.64Zm9.16-15a10.79,10.79,0,0,1-.44,2.79l-2.64,9.83a24.05,24.05,0,0,1-1.39,4,7,7,0,0,1-1.42,2.08,3,3,0,0,1-1.5.8,10.44,10.44,0,0,1-1.59.12,9.25,9.25,0,0,1-1.69-.14,3.06,3.06,0,0,1-1.55-.82,7.18,7.18,0,0,1-1.45-2.1,22,22,0,0,1-1.37-4L223.05,263a12.75,12.75,0,0,1-.46-3.18c0-2.82,1.49-4.23,4.49-4.23h8.57q4.84,0,4.85,4.08Zm14.39-4h4v22.93h-4V267.66h-8.67v10.93h-4V255.66h4v8h8.67v-8Zm5.72,4.18c0-2.82,1.51-4.24,4.52-4.24h7.74v4h-6.36a1.32,1.32,0,0,0-1.49,1.49,4.28,4.28,0,0,0,.05.6c0,.22.09.46.16.73l2.28,9.24a7.05,7.05,0,0,0,.85,2.22c.31.44.61.65.9.65h3.61v4h-3.69a11.64,11.64,0,0,1-1.6-.1,2.8,2.8,0,0,1-1.47-.71,6.14,6.14,0,0,1-1.36-1.89,19.76,19.76,0,0,1-1.27-3.69L261.1,263a15.62,15.62,0,0,1-.36-1.69,8.92,8.92,0,0,1-.13-1.49Zm18.22-4.18,6.59,11.67,3.72-11.67h4l-7.31,22.93h-4l1.92-6.08-9.26-16.85Z" transform="translate(-207.69 -227.16)" fill="#fff" fill-rule="evenodd"/><path d="M337.33,278.57H315.68l1.74-4h2.18a25.91,25.91,0,0,1,2.32-7.86,27.5,27.5,0,0,1,5-7.07h-5.7l1.95-4h12v19h2.23v4Zm-6.34-4V259.73a41.26,41.26,0,0,0-2.77,3.39,26,26,0,0,0-2.14,3.49,23.51,23.51,0,0,0-1.51,3.75,27.12,27.12,0,0,0-.94,4.13v0s0,0,0,0Zm16.83.13a1.43,1.43,0,0,0,1.12-.72,7.74,7.74,0,0,0,1-2.43l2.49-9.42a4.55,4.55,0,0,0,.15-1.05c0-1-.58-1.46-1.74-1.46H345a1.31,1.31,0,0,0-1.49,1.48,5.65,5.65,0,0,0,.21,1.34l2.31,9.24a6.45,6.45,0,0,0,.91,2.38c.33.43.64.64.93.64Zm9.16-15a10.73,10.73,0,0,1-.43,2.79l-2.65,9.83a23.26,23.26,0,0,1-1.38,4,6.86,6.86,0,0,1-1.43,2.08,2.92,2.92,0,0,1-1.5.8,10.25,10.25,0,0,1-1.59.12,9.22,9.22,0,0,1-1.68-.14,3,3,0,0,1-1.55-.82,7,7,0,0,1-1.45-2.1,21.27,21.27,0,0,1-1.37-4L339.54,263a12.81,12.81,0,0,1-.47-3.18q0-4.23,4.49-4.23h8.57C355.37,255.58,357,256.94,357,259.66Z" transform="translate(-207.69 -227.16)" fill="#2b2a29" fill-rule="evenodd"/><path d="M211.61,237.74c0-.9.48-1.35,1.45-1.35h2.47v1.28h-2a.42.42,0,0,0-.48.48,1.37,1.37,0,0,0,0,.19c0,.07,0,.15.05.24l.73,2.95a2.18,2.18,0,0,0,.27.71c.1.14.19.21.29.21h1.15v1.28h-1.18a4.12,4.12,0,0,1-.51,0,.9.9,0,0,1-.47-.23,1.89,1.89,0,0,1-.43-.6,6,6,0,0,1-.41-1.18l-.76-2.93c-.05-.19-.09-.38-.12-.54a4.23,4.23,0,0,1,0-.48Zm7.73,1.2v1.23h-1.94v2.27h2.89v1.29H216.1V236.4h4.18v1.24h-2.89v1.3Zm8.2-2.54-.59,1.3h-2.1v6h-1.28v-6h-2.72l.62-1.29h6.07Zm1.81,0v2.1l2.4,2.35a4.74,4.74,0,0,1,.37.39l.34.47a3.78,3.78,0,0,1,.25.49,1.25,1.25,0,0,1,.1.48.88.88,0,0,1-.11.42.86.86,0,0,1-.35.33,2.24,2.24,0,0,1-.65.22,4.75,4.75,0,0,1-1,.08h-2.64V236.4Zm1.59,6.1c.3,0,.45-.12.45-.34a.33.33,0,0,0-.06-.19,1,1,0,0,0-.16-.19L229.35,240v2.46Zm10.63-4.76a2.74,2.74,0,0,1,0,.48c0,.16-.06.35-.11.54l-.77,2.93a6.12,6.12,0,0,1-.4,1.18,1.9,1.9,0,0,1-.44.6.87.87,0,0,1-.46.23,4.28,4.28,0,0,1-.52,0h-1.18v-1.28h1.16c.09,0,.19-.07.29-.21a2.44,2.44,0,0,0,.27-.71l.32-1.31h-1.45V239H240l.11-.41c0-.09,0-.17.05-.24a1.28,1.28,0,0,0,0-.19.42.42,0,0,0-.47-.48h-2v-1.28h2.48q1.44,0,1.44,1.35Zm4.78-1.34h1.2a8,8,0,0,1-.93,1.88,9.38,9.38,0,0,1-1.34,1.56l2.72,3.89h-1.29l-2.23-3.19a4.46,4.46,0,0,1-.43.33,4.25,4.25,0,0,1-.47.31v2.55h-1.29V236.4h1.29v3.54a8.38,8.38,0,0,0,1.71-1.57,6.13,6.13,0,0,0,1.06-2Zm3.53,4.46,2.43-3.6v-.86h1.28v7.33h-1.28v-4.51l-2.43,3.56v.95h-1.29V236.4h1.29v4.46Zm8.42-4.46h1.29v7.33H258.3v-6h-2.77v6h-1.29V236.4h4.06Zm3.06,4.46,2.42-3.6v-.86h1.29v7.33h-1.29v-4.51l-2.42,3.56v.95h-1.29V236.4h1.29v4.46Zm4.37,2.87V236.4h2.64a4.68,4.68,0,0,1,1,.09,2,2,0,0,1,.65.22.8.8,0,0,1,.45.74,1.36,1.36,0,0,1-.09.48,2.57,2.57,0,0,1-.26.49,4,4,0,0,1-.34.47,4.81,4.81,0,0,1-.36.4L267,241.63v2.1Zm1.28-6.09v2.46l1.82-1.75a.86.86,0,0,0,.16-.18.3.3,0,0,0,.07-.19c0-.23-.15-.34-.46-.34Zm6.78,4.85a.46.46,0,0,0,.36-.23,2.73,2.73,0,0,0,.32-.78l.79-3a1.12,1.12,0,0,0,.05-.34c0-.31-.18-.46-.56-.46h-1.87a.42.42,0,0,0-.48.47,1.64,1.64,0,0,0,.07.43l.73,3a2,2,0,0,0,.3.76c.1.14.2.21.29.21Zm2.93-4.81a3.19,3.19,0,0,1-.14.9l-.84,3.14a8.39,8.39,0,0,1-.44,1.26,2.15,2.15,0,0,1-.46.66,1,1,0,0,1-.48.26,4.06,4.06,0,0,1-.51,0,3.07,3.07,0,0,1-.53-.05.93.93,0,0,1-.5-.26,2.22,2.22,0,0,1-.46-.67,6.64,6.64,0,0,1-.44-1.28l-.77-2.93a4.06,4.06,0,0,1-.15-1c0-.9.48-1.35,1.43-1.35h2.74c1,0,1.55.43,1.55,1.3Zm.51,6V236.4h2.64a5.3,5.3,0,0,1,1,.08,2.1,2.1,0,0,1,.64.2.83.83,0,0,1,.33.31.72.72,0,0,1,.1.38,2.17,2.17,0,0,1-.3,1,4.43,4.43,0,0,1-.82,1.07l.89,1.54a4.16,4.16,0,0,1,.36.79,2.53,2.53,0,0,1,.11.68,1.24,1.24,0,0,1-.35.94,1.28,1.28,0,0,1-.87.32Zm1.29-2.1v.82h2.15a.41.41,0,0,0,.3-.09.28.28,0,0,0,.1-.23.74.74,0,0,0-.15-.38l-.95-1.53-1.45,1.41Zm0-4v2.46l1.82-1.75a1.29,1.29,0,0,0,.16-.18.3.3,0,0,0,.07-.19c0-.23-.16-.34-.46-.34Zm6.87,4.85a.46.46,0,0,0,.35-.23,2.47,2.47,0,0,0,.32-.78l.8-3a1.55,1.55,0,0,0,.05-.34c0-.31-.19-.46-.56-.46h-1.88a.42.42,0,0,0-.48.47,2.21,2.21,0,0,0,.07.43l.74,3a2.05,2.05,0,0,0,.29.76q.17.21.3.21Zm2.93-4.81a3.6,3.6,0,0,1-.14.9l-.85,3.14a7.4,7.4,0,0,1-.44,1.26,2.15,2.15,0,0,1-.46.66.88.88,0,0,1-.48.26,4,4,0,0,1-.5,0,3.1,3.1,0,0,1-.54-.05,1,1,0,0,1-.5-.26A2.22,2.22,0,0,1,284,243a6.64,6.64,0,0,1-.44-1.28l-.77-2.93a4.06,4.06,0,0,1-.15-1q0-1.35,1.44-1.35h2.74c1,0,1.55.43,1.55,1.3Zm2,3.7a2.19,2.19,0,0,1-.46,0,.55.55,0,0,1-.36-.23,1.72,1.72,0,0,1-.26-.63,7.94,7.94,0,0,1-.16-1.22l-.19-2.86h1.33l.18,2.7a2.47,2.47,0,0,0,.13.74c.06.15.14.23.23.24h1.77v-3.67h1.28v7.33h-1.28v-2.36Zm8.2-5h1.29v7.33h-1.29v-3.49h-2.77v3.49h-1.29V236.4h1.29V239h2.77V236.4Zm3.14,0v2.1l2.4,2.35a4.74,4.74,0,0,1,.37.39l.34.47a2.84,2.84,0,0,1,.25.49,1.25,1.25,0,0,1,.1.48.88.88,0,0,1-.11.42.86.86,0,0,1-.35.33,2.14,2.14,0,0,1-.65.22,4.75,4.75,0,0,1-1,.08h-2.64V236.4Zm1.59,6.1c.3,0,.45-.12.45-.34a.33.33,0,0,0-.06-.19.7.7,0,0,0-.16-.19L301.68,240v2.46Zm2.18-6.09h1.29v7.33h-1.29v-7.33Zm5.95,0h1.28l-1.85,3.33,2.22,4h-1.29l-1.57-2.84-1.57,2.84h-1.29l2.21-4-1.85-3.33H309l1.21,2.18,1.21-2.18Zm12.88,8.53-1,0v-1.18h-5.31V236.4h1.29v6H322v-6h1.29l0,6h1v2.56Zm3.86-6v1.23h-1.94v2.27h2.89v1.29H324.9V236.4h4.18v1.24h-2.89v1.3Zm5.66-2.54h1.28v7.33H333.8v-3.49H331v3.49h-1.28V236.4H331V239h2.78V236.4Zm8.46,0-.6,1.3h-2.09v6h-1.29v-6h-2.71l.61-1.29h6.08Zm.51,7.33V236.4h2.64a4.61,4.61,0,0,1,1,.09,1.9,1.9,0,0,1,.65.22.8.8,0,0,1,.35.33.87.87,0,0,1,.11.41,1.18,1.18,0,0,1-.1.48,2.52,2.52,0,0,1-.25.49,5.66,5.66,0,0,1-.34.47l-.37.4-2.4,2.34v2.1Zm1.29-6.09v2.46l1.82-1.75a.86.86,0,0,0,.16-.18.35.35,0,0,0,.06-.19c0-.23-.15-.34-.45-.34Zm6.78,4.85a.46.46,0,0,0,.36-.23,2.49,2.49,0,0,0,.31-.78l.8-3a1.55,1.55,0,0,0,.05-.34c0-.31-.19-.46-.56-.46h-1.88a.41.41,0,0,0-.47.47,2.07,2.07,0,0,0,.06.43l.74,3a2.25,2.25,0,0,0,.29.76q.16.21.3.21Zm2.93-4.81a3.6,3.6,0,0,1-.14.9l-.85,3.14a6.62,6.62,0,0,1-.44,1.26,2.34,2.34,0,0,1-.45.66,1,1,0,0,1-.48.26,4.38,4.38,0,0,1-.51,0,3.1,3.1,0,0,1-.54-.05.91.91,0,0,1-.49-.26,2.22,2.22,0,0,1-.47-.67,7.4,7.4,0,0,1-.44-1.28l-.77-2.93a4,4,0,0,1-.14-1c0-.9.47-1.35,1.43-1.35h2.74c1,0,1.55.43,1.55,1.3Zm.51,6V236.4h2.64a5.3,5.3,0,0,1,1,.08,2.12,2.12,0,0,1,.63.2.86.86,0,0,1,.34.31.83.83,0,0,1,.1.38,2.17,2.17,0,0,1-.3,1,4.48,4.48,0,0,1-.83,1.07l.9,1.54a3.55,3.55,0,0,1,.35.79,2.19,2.19,0,0,1,.11.68,1.2,1.2,0,0,1-.35.94,1.24,1.24,0,0,1-.87.32Zm1.28-2.1v.82h2.15a.44.44,0,0,0,.31-.09.3.3,0,0,0,.09-.23.81.81,0,0,0-.14-.38l-1-1.53-1.45,1.41Zm0-4v2.46l1.82-1.75a1.41,1.41,0,0,0,.17-.18.35.35,0,0,0,.06-.19c0-.23-.15-.34-.46-.34Z" transform="translate(-207.69 -227.16)" fill="#2b2a29" fill-rule="evenodd"/></svg>