<?xml version="1.0" encoding="utf-8"?><svg viewBox="0 0 34 30.3" xmlns="http://www.w3.org/2000/svg" xmlns:xlink="http://www.w3.org/1999/xlink"><style>:root>svg{display:none}:root>svg:target{display:block}</style><svg viewBox="0 0 24.31 30.3" id="ic_account" xmlns="http://www.w3.org/2000/svg"><path fill="none" stroke="currentColor" stroke-linecap="round" stroke-linejoin="round" d="M6.6 16.74l2.02.21M17.71 16.74l-2.01.21"/><path d="M12.28 1c7.19 0 9.54 4.56 9.54 8.1a26.43 26.43 0 0 1 0 4.18 2.05 2.05 0 0 1 .88-.28c.3 0 .54.16.56.67a9.71 9.71 0 0 1-.35 3.07 4.14 4.14 0 0 1-1.11 1.56 1.21 1.21 0 0 1-.57.19v.2c-.26 1.66-1.36 3.33-2.2 4.91-1.67 3.11-3.82 5.66-6.89 5.7s-5.22-2.59-6.88-5.7c-.85-1.58-1.94-3.25-2.21-4.91v-.2a1.14 1.14 0 0 1-.56-.19 4.23 4.23 0 0 1-1.12-1.56 10.33 10.33 0 0 1-.35-3.07c0-.51.26-.67.57-.67a2 2 0 0 1 .87.28 26.42 26.42 0 0 1 .05-4.18c0-3.55 2.35-8.1 9.54-8.1h.25m0-1h-.25c-3.5 0-6.33 1.05-8.2 3a8.82 8.82 0 0 0-2.34 6 25.32 25.32 0 0 0-.1 2.95 1.58 1.58 0 0 0-1.39 1.62 11.37 11.37 0 0 0 .41 3.46 5.16 5.16 0 0 0 1.42 2 1.78 1.78 0 0 0 .28.16 14.51 14.51 0 0 0 1.72 3.87l.51.93c2.22 4.15 4.75 6.19 7.75 6.23s5.56-2.08 7.78-6.23c.16-.31.33-.61.51-.93a15.17 15.17 0 0 0 1.72-3.87 1.56 1.56 0 0 0 .27-.16 5.3 5.3 0 0 0 1.41-2 10.78 10.78 0 0 0 .41-3.46 1.57 1.57 0 0 0-1.38-1.62 25.32 25.32 0 0 0-.1-2.95c0-4.51-3.29-9.05-10.54-9.05z" fill="currentColor"/><path d="M22.01 5.79c-3.65-.29-7.57.51-11.3 5.63-2.57 3.53-8.54 1.06-8.54 1.06" fill="none" stroke="currentColor" stroke-miterlimit="10"/></svg><svg viewBox="0 0 18 18.11" id="ic_add_review" xmlns="http://www.w3.org/2000/svg"><defs><clipPath id="ba" transform="translate(-.5 -.5)"><path fill="none" d="M0 0h19v19.11H0z"/></clipPath></defs><g clip-path="url(#ba)"><path d="M10.87 1a6.13 6.13 0 0 1 0 12.26H7.5l-.29.3-3.17 3.17v-4.29l-.42-.3A6.12 6.12 0 0 1 7.13 1h3.74m0-1H7.13a7.12 7.12 0 0 0-4.09 13v4.5a.66.66 0 0 0 .66.66h.09a.66.66 0 0 0 .47-.19l3.66-3.66h2.95a7.155 7.155 0 0 0 0-14.31" fill="currentColor"/></g></svg><svg viewBox="0 0 15.39 16" id="ic_all_link" xmlns="http://www.w3.org/2000/svg"><path fill="currentColor" d="M3 0h12.39v1H3zM3 5h12.39v1H3zM3 10h12.39v1H3zM3 15h12.39v1H3zM0 0h1.39v1H0zM0 5h1.39v1H0zM0 10h1.39v1H0zM0 15h1.39v1H0z"/></svg><svg viewBox="0 0 16 21" id="ic_all_link2" xmlns="http://www.w3.org/2000/svg"><path d="M13.21 1A1.79 1.79 0 0 1 15 2.79v15.42A1.79 1.79 0 0 1 13.21 20H2.79A1.79 1.79 0 0 1 1 18.21V2.79A1.79 1.79 0 0 1 2.79 1h10.42m0-1H2.79A2.79 2.79 0 0 0 0 2.79v15.42A2.79 2.79 0 0 0 2.79 21h10.42A2.79 2.79 0 0 0 16 18.21V2.79A2.79 2.79 0 0 0 13.21 0z" fill="currentColor"/><path fill="currentColor" d="M12 4H4v1h8V4zM12 8H4v1h8V8zM12 12H4v1h8v-1zM12 16H4v1h8v-1z"/></svg><svg viewBox="0 0 22.09 21.75" id="ic_buy" xmlns="http://www.w3.org/2000/svg"><path d="M2.41 1.5h2.8a.9.9 0 0 1 .89.71l1 2.93h12.57a.9.9 0 0 1 .73.36.91.91 0 0 1 .15.8l-3.34 6.93a1.94 1.94 0 0 1-1.87 1.28H9.81c-.46 0-1.4 0-2-1.57-.17-.78-3.17-9.09-3.29-9.61H2.45a.91.91 0 0 1 0-1.82m0-1.5a2.41 2.41 0 0 0 0 4.82h1c.22.63.55 1.59 1.07 3 .69 2 1.74 5 1.85 5.41v.23a3.53 3.53 0 0 0 3.43 2.51h5.53a3.42 3.42 0 0 0 3.21-2.11l3.35-6.95.06-.12v-.12a2.41 2.41 0 0 0-2.32-3.07H8.18l-.64-1.86A2.39 2.39 0 0 0 5.21-.03zM9.2 17.86a1.2 1.2 0 1 1-1.19 1.2 1.19 1.19 0 0 1 1.19-1.2m0-1.5a2.7 2.7 0 1 0 2.69 2.7 2.69 2.69 0 0 0-2.69-2.7zM15.72 17.86a1.2 1.2 0 1 1-1.19 1.2 1.19 1.19 0 0 1 1.19-1.2m0-1.5a2.7 2.7 0 1 0 2.69 2.7 2.69 2.69 0 0 0-2.69-2.7z" fill="currentColor"/><path fill="none" stroke="currentColor" stroke-linecap="round" stroke-linejoin="round" stroke-width="1.5" d="M10.06 8.12h5.06M11.09 11.23h3"/></svg><svg viewBox="0 0 27.14 26.48" id="ic_cart" xmlns="http://www.w3.org/2000/svg"><path d="M2.2 1h3.7a1.21 1.21 0 0 1 1.17.94L8.39 5.8h16.55a1.18 1.18 0 0 1 1 .48 1.19 1.19 0 0 1 .2 1.05L21.7 16.5a2.55 2.55 0 0 1-2.46 1.69h-7.29c-.61 0-1.85 0-2.69-2.08-.23-1-4.17-12-4.33-12.65H2.2a1.2 1.2 0 1 1 0-2.4m0-1a2.2 2.2 0 1 0 0 4.4h2c.27.81.78 2.27 1.62 4.65 1 2.84 2.35 6.72 2.47 7.22v.16c1.09 2.7 2.92 2.7 3.61 2.7h7.29a3.57 3.57 0 0 0 3.36-2.24l4.4-9.14v-.16a2.2 2.2 0 0 0-2.12-2.8H9.11L8.03 1.71A2.19 2.19 0 0 0 5.9.05zM11.68 22.33a1.58 1.58 0 1 1-1.58 1.58 1.57 1.57 0 0 1 1.58-1.58m0-1a2.58 2.58 0 1 0 2.57 2.58 2.59 2.59 0 0 0-2.57-2.58zM18.95 22.33a1.58 1.58 0 1 1-1.57 1.58 1.57 1.57 0 0 1 1.57-1.58m0-1a2.58 2.58 0 1 0 2.57 2.58 2.58 2.58 0 0 0-2.57-2.58z" fill="currentColor"/><path fill="none" stroke="currentColor" stroke-linecap="round" stroke-linejoin="round" d="M12.27 9.72h6.67M13.64 13.81h3.94"/></svg><svg viewBox="0 0 22 26.98" id="ic_compare" xmlns="http://www.w3.org/2000/svg"><path d="M19.3 1A1.7 1.7 0 0 1 21 2.7v21.58a1.7 1.7 0 0 1-1.7 1.7h-.6a1.7 1.7 0 0 1-1.7-1.7V2.7A1.7 1.7 0 0 1 18.7 1h.6m0-1h-.6A2.7 2.7 0 0 0 16 2.7v21.58a2.7 2.7 0 0 0 2.7 2.7h.6a2.7 2.7 0 0 0 2.7-2.7V2.7A2.7 2.7 0 0 0 19.3 0zM11.3 11a1.7 1.7 0 0 1 1.7 1.7v11.58a1.7 1.7 0 0 1-1.7 1.7h-.6a1.7 1.7 0 0 1-1.7-1.7V12.7a1.7 1.7 0 0 1 1.7-1.7h.6m0-1h-.6A2.7 2.7 0 0 0 8 12.7v11.58a2.7 2.7 0 0 0 2.7 2.7h.6a2.7 2.7 0 0 0 2.7-2.7V12.7a2.7 2.7 0 0 0-2.7-2.7zM3.3 6A1.7 1.7 0 0 1 5 7.7v16.58a1.7 1.7 0 0 1-1.7 1.7h-.6a1.7 1.7 0 0 1-1.7-1.7V7.7A1.7 1.7 0 0 1 2.7 6h.6m0-1h-.6A2.7 2.7 0 0 0 0 7.7v16.58a2.7 2.7 0 0 0 2.7 2.7h.6a2.7 2.7 0 0 0 2.7-2.7V7.7A2.7 2.7 0 0 0 3.3 5z" fill="currentColor"/></svg><svg viewBox="0 0 19 20.97" id="ic_compare2" xmlns="http://www.w3.org/2000/svg"><rect x="14" width="5" height="20.97" rx="2.17" fill="currentColor"/><rect x="7" y="8" width="5" height="12.97" rx="2.15" fill="currentColor"/><rect y="4" width="5" height="16.97" rx="2.17" fill="currentColor"/></svg><svg viewBox="0 0 17 21" id="ic_delete" xmlns="http://www.w3.org/2000/svg"><defs><clipPath id="ia"><path fill="none" d="M0 0h17v21H0z"/></clipPath></defs><g clip-path="url(#ia)" fill="currentColor"><path d="M15 18.21A1.79 1.79 0 0 1 13.21 20H3.79A1.79 1.79 0 0 1 2 18.21V6H1v12.21A2.79 2.79 0 0 0 3.79 21h9.42A2.79 2.79 0 0 0 16 18.21V6h-1zM17 3H0v1h17V3zM17 5H0v1h17V5z"/><path d="M5 17V8H4v9h1zM8.5 1A3.5 3.5 0 0 1 12 4h1a4.48 4.48 0 0 0-8.9 0h1a3.5 3.5 0 0 1 3.4-3"/></g></svg><svg viewBox="0 0 17 21" id="ic_edit_pass" xmlns="http://www.w3.org/2000/svg"><defs><clipPath id="ja"><path fill="none" d="M0 0h17v21H0z"/></clipPath></defs><g clip-path="url(#ja)"><path d="M14.21 8A1.79 1.79 0 0 1 16 9.79v8.42A1.79 1.79 0 0 1 14.21 20H2.79A1.79 1.79 0 0 1 1 18.21V9.79A1.79 1.79 0 0 1 2.79 8h11.42m0-1H2.79A2.79 2.79 0 0 0 0 9.79v8.42A2.79 2.79 0 0 0 2.79 21h11.42A2.79 2.79 0 0 0 17 18.21V9.79A2.79 2.79 0 0 0 14.21 7" fill="currentColor"/><path d="M5 4.5a3.5 3.5 0 0 1 7 0V8h1V4.5a4.5 4.5 0 0 0-9 0V8h1z" fill="currentColor"/><path d="M8.5 17.5h0a2 2 0 0 1-2-2v-3a2 2 0 0 1 4 0v3a2 2 0 0 1-2 2z" fill="none" stroke="currentColor" stroke-miterlimit="10"/></g></svg><svg viewBox="0 0 17 20" id="ic_edit_personal" xmlns="http://www.w3.org/2000/svg"><defs><clipPath id="ka"><path fill="none" d="M0 0h17v20H0z"/></clipPath></defs><path fill="currentColor" d="M5 4h9v1H5zM3 4h1v1H3zM5 8h9v1H5zM3 8h1v1H3zM5 12h9v1H5zM3 12h1v1H3z"/><g clip-path="url(#ka)"><path d="M14.21 0H2.79A2.79 2.79 0 0 0 0 2.79v14.42A2.79 2.79 0 0 0 2.79 20h11.42A2.79 2.79 0 0 0 17 17.21V2.79A2.79 2.79 0 0 0 14.21 0M16 17.21A1.79 1.79 0 0 1 14.21 19H2.79A1.79 1.79 0 0 1 1 17.21V2.79A1.79 1.79 0 0 1 2.79 1h11.42A1.79 1.79 0 0 1 16 2.79z" fill="currentColor"/></g></svg><svg viewBox="0 0 20 14.78" id="ic_email" xmlns="http://www.w3.org/2000/svg"><rect x="272.51" y="125.23" width="1" height="3.85" rx=".5" transform="rotate(90 196.605 -64.825)" fill="currentColor"/><rect x="273.59" y="114.57" width="1" height="12.14" rx=".5" transform="rotate(129.82 166.953 .018)" fill="currentColor"/><rect x="282.18" y="114.57" width="1" height="12.15" rx=".5" transform="rotate(50.18 271.916 -223.742)" fill="currentColor"/><path d="M18.07 1a.93.93 0 0 1 .93.93v10.93a.93.93 0 0 1-.93.92H1.93a.93.93 0 0 1-.93-.92V1.93A.93.93 0 0 1 1.93 1h16.14m0-1H1.93A1.92 1.92 0 0 0 0 1.93v10.93a1.92 1.92 0 0 0 1.93 1.92h16.14A1.92 1.92 0 0 0 20 12.86V1.93A1.92 1.92 0 0 0 18.07 0z" fill="currentColor"/></svg><svg viewBox="0 0 25 25" id="ic_facebook" xmlns="http://www.w3.org/2000/svg"><path d="M21.2 0H3.79A3.79 3.79 0 0 0 0 3.79V21.2A3.8 3.8 0 0 0 3.79 25h5.07V14.64h-3.6v-3.63h3.6v-2.9a4.71 4.71 0 0 1 5.08-5.08h2.92v3.63h-1.45c-1.61 0-2.18.33-2.18 1.45v2.9h3.63l-.72 3.63h-2.91V25h8a3.81 3.81 0 0 0 3.8-3.8V3.79A3.8 3.8 0 0 0 21.2 0z" fill="currentColor"/></svg><svg viewBox="0 0 26.85 26.85" id="ic_favorite" xmlns="http://www.w3.org/2000/svg"><path d="M13.43 1A12.43 12.43 0 1 1 .96 13.43 12.43 12.43 0 0 1 13.39 1m0-1a13.43 13.43 0 1 0 13.42 13.43A13.45 13.45 0 0 0 13.39 0z" fill="currentColor"/><path d="M13.43 6.21a.72.72 0 0 1 .64.4l1.78 3.61a.71.71 0 0 0 .53.39l4 .58a.72.72 0 0 1 .4 1.22l-2.88 2.8a.71.71 0 0 0-.21.63l.68 4a.71.71 0 0 1-.7.83.64.64 0 0 1-.33-.08l-3.58-1.92a.67.67 0 0 0-.33-.08.68.68 0 0 0-.34.08l-3.55 1.87a.72.72 0 0 1-1-.75l.68-4a.71.71 0 0 0-.21-.63l-2.88-2.8a.72.72 0 0 1 .4-1.22l4-.58a.75.75 0 0 0 .54-.39l1.77-3.61a.72.72 0 0 1 .65-.4m0-1a1.71 1.71 0 0 0-1.54 1l-1.78 3.51-3.82.56a1.71 1.71 0 0 0-.95 2.92l2.77 2.7-.66 3.82a1.71 1.71 0 0 0 2.49 1.8l3.43-1.8 3.42 1.8a1.71 1.71 0 0 0 2.49-1.8l-.66-3.82 2.78-2.7a1.71 1.71 0 0 0 .43-1.76 1.69 1.69 0 0 0-1.39-1.16l-3.82-.56-1.72-3.5a1.7 1.7 0 0 0-1.53-1z" fill="currentColor"/></svg><svg viewBox="0 0 17.1 16.43" id="ic_favorite2" xmlns="http://www.w3.org/2000/svg"><path d="M8.55 1a.71.71 0 0 1 .64.39L10.97 5a.69.69 0 0 0 .53.39l4 .58a.72.72 0 0 1 .4 1.22l-2.88 2.8a.72.72 0 0 0-.21.64l.68 4a.71.71 0 0 1-.7.83.64.64 0 0 1-.33-.08L8.9 13.51a.74.74 0 0 0-.67 0l-3.55 1.87a.72.72 0 0 1-1-.75l.68-4a.72.72 0 0 0-.21-.64l-2.88-2.8a.72.72 0 0 1 .4-1.22l4-.58A.72.72 0 0 0 6.21 5l1.77-3.61A.71.71 0 0 1 8.63 1m0-1a1.7 1.7 0 0 0-1.54.95L5.37 4.42l-3.82.56A1.71 1.71 0 0 0 .6 7.9l2.77 2.7-.66 3.82a1.72 1.72 0 0 0 2.49 1.81l3.43-1.8 3.42 1.8a1.72 1.72 0 0 0 2.49-1.81l-.66-3.82 2.78-2.7a1.71 1.71 0 0 0-1-2.92l-3.82-.56-1.76-3.5a1.69 1.69 0 0 0-1.53-.95z" fill="currentColor"/></svg><svg viewBox="0 0 17.1 16.43" id="ic_favorite3" xmlns="http://www.w3.org/2000/svg"><path d="M12.77 15.92a1.15 1.15 0 0 1-.57-.14l-3.55-1.86H8.44l-3.55 1.87a1.15 1.15 0 0 1-.57.14 1.19 1.19 0 0 1-.93-.43 1.21 1.21 0 0 1-.27-1l.68-4a.2.2 0 0 0-.06-.19L.86 7.51a1.23 1.23 0 0 1 .68-2.08l4-.57a.27.27 0 0 0 .17-.12l1.78-3.61a1.21 1.21 0 0 1 2.17 0l1.78 3.61a.27.27 0 0 0 .17.12l4 .57a1.23 1.23 0 0 1 .68 2.08l-2.88 2.8a.2.2 0 0 0-.06.19l.68 4a1.21 1.21 0 0 1-.27 1 1.19 1.19 0 0 1-.99.42z" fill="currentColor"/><path d="M8.55 1a.71.71 0 0 1 .64.39L10.97 5a.69.69 0 0 0 .53.39l4 .58a.72.72 0 0 1 .4 1.22l-2.88 2.8a.72.72 0 0 0-.21.64l.68 4a.71.71 0 0 1-.7.83.64.64 0 0 1-.33-.08L8.9 13.51a.74.74 0 0 0-.67 0l-3.55 1.87a.72.72 0 0 1-1-.75l.68-4a.72.72 0 0 0-.21-.64l-2.88-2.8a.72.72 0 0 1 .4-1.22l4-.58A.72.72 0 0 0 6.21 5l1.77-3.61A.71.71 0 0 1 8.63 1m0-1a1.7 1.7 0 0 0-1.54.95L5.37 4.42l-3.82.56A1.71 1.71 0 0 0 .6 7.9l2.77 2.7-.66 3.82a1.72 1.72 0 0 0 2.49 1.81l3.43-1.8 3.42 1.8a1.72 1.72 0 0 0 2.49-1.81l-.66-3.82 2.78-2.7a1.71 1.71 0 0 0-1-2.92l-3.82-.56-1.76-3.5a1.69 1.69 0 0 0-1.53-.95z" fill="currentColor"/></svg><svg viewBox="0 0 18 18" id="ic_grid_view" xmlns="http://www.w3.org/2000/svg"><defs><clipPath id="qa"><path fill="none" d="M0 0h18v18H0z"/></clipPath></defs><g clip-path="url(#qa)" fill="currentColor"><path d="M6 8H2a2 2 0 0 1-2-2V2a2 2 0 0 1 2-2h4a2 2 0 0 1 2 2v4a2 2 0 0 1-2 2M16 8h-4a2 2 0 0 1-2-2V2a2 2 0 0 1 2-2h4a2 2 0 0 1 2 2v4a2 2 0 0 1-2 2M6 18H2a2 2 0 0 1-2-2v-4a2 2 0 0 1 2-2h4a2 2 0 0 1 2 2v4a2 2 0 0 1-2 2M16 18h-4a2 2 0 0 1-2-2v-4a2 2 0 0 1 2-2h4a2 2 0 0 1 2 2v4a2 2 0 0 1-2 2"/></g></svg><svg viewBox="0 0 25 25" id="ic_instagram" xmlns="http://www.w3.org/2000/svg"><ellipse cx="12.5" cy="12.5" rx="4.08" ry="4.04" fill="currentColor"/><path d="M18.7 0H6.29A6.28 6.28 0 0 0 0 6.23v12.51a6.28 6.28 0 0 0 6.29 6.23H18.7a6.29 6.29 0 0 0 6.3-6.23V6.23A6.28 6.28 0 0 0 18.7 0zm-6.17 19.66a7.16 7.16 0 1 1 7.24-7.16 7.2 7.2 0 0 1-7.24 7.16zm7.48-13.28a1.82 1.82 0 1 1 1.84-1.82 1.82 1.82 0 0 1-1.87 1.82z" fill="currentColor"/></svg><svg viewBox="0 0 18 18" id="ic_list_view" xmlns="http://www.w3.org/2000/svg"><defs><clipPath id="sa"><path fill="none" d="M0 0h18v18H0z"/></clipPath></defs><g clip-path="url(#sa)" fill="currentColor"><path d="M16 4H2a2 2 0 0 1 0-4h14a2 2 0 0 1 0 4M16 11H2a2 2 0 0 1 0-4h14a2 2 0 0 1 0 4M16 18H2a2 2 0 0 1 0-4h14a2 2 0 0 1 0 4"/></g></svg><svg viewBox="0 0 20 20" id="ic_logout" xmlns="http://www.w3.org/2000/svg"><defs><clipPath id="ta"><path fill="none" d="M0 0h20v20H0z"/></clipPath></defs><path fill="currentColor" d="M5 6H3v1h1v2h8v2H4v2H3v1h2v-2h8V8H5V6zM2 7h1v1H2zM1 8h1v1H1zM0 9v2h1V9H0zM2 12h1v1H2zM1 11h1v1H1z"/><g clip-path="url(#ta)"><path d="M17.21 0H5.79A2.79 2.79 0 0 0 3 2.79V4h1V2.79A1.79 1.79 0 0 1 5.79 1h11.42A1.79 1.79 0 0 1 19 2.79v14.42A1.79 1.79 0 0 1 17.21 19H5.79A1.79 1.79 0 0 1 4 17.21V16H3v1.21A2.79 2.79 0 0 0 5.79 20h11.42A2.79 2.79 0 0 0 20 17.21V2.79A2.79 2.79 0 0 0 17.21 0" fill="currentColor"/></g></svg><svg viewBox="0 0 17 20.28" id="ic_percents" xmlns="http://www.w3.org/2000/svg"><defs><clipPath id="ua"><path fill="none" d="M0 0h17v20.28H0z"/></clipPath></defs><g clip-path="url(#ua)" fill="currentColor"><path d="M3.5 1A2.5 2.5 0 1 1 1 3.5 2.5 2.5 0 0 1 3.5 1m0-1A3.5 3.5 0 1 0 7 3.5 3.5 3.5 0 0 0 3.5 0M13.5 14a2.5 2.5 0 1 1-2.5 2.5 2.5 2.5 0 0 1 2.5-2.5m0-1a3.5 3.5 0 1 0 3.5 3.5 3.5 3.5 0 0 0-3.5-3.5M2.07 19.778l11-19.052.866.5-11 19.052z"/></g></svg><svg viewBox="0 0 14 21" id="ic_phone" xmlns="http://www.w3.org/2000/svg"><path d="M12.01 1a1 1 0 0 1 1 1v17a1 1 0 0 1-1 1h-10a1 1 0 0 1-1-1V2a1 1 0 0 1 1-1h10m0-1h-10a2 2 0 0 0-2 2v17a2 2 0 0 0 2 2h10a2 2 0 0 0 2-2V2a2 2 0 0 0-2-2z" fill="currentColor"/><path fill="currentColor" d="M9 2H5v1h4V2zM8 18H6v1h2v-1zM13 16H1v1h12v-1z"/></svg><svg viewBox="0 0 19.63 19.63" id="ic_search" xmlns="http://www.w3.org/2000/svg"><path d="M11.5 1a7.13 7.13 0 1 1-7.12 7.13A7.14 7.14 0 0 1 11.5 1m0-1a8.13 8.13 0 1 0 8.13 8.13A8.12 8.12 0 0 0 11.5 0z" fill="currentColor"/><path fill="none" stroke="currentColor" stroke-linecap="round" stroke-miterlimit="10" d="M6.05 13.58L.5 19.13"/></svg><svg viewBox="0 0 18 21" id="ic_table" xmlns="http://www.w3.org/2000/svg"><defs><clipPath id="xa"><path fill="none" d="M0 0h18v21H0z"/></clipPath></defs><g clip-path="url(#xa)" fill="currentColor"><path d="M15.21 1A1.79 1.79 0 0 1 17 2.79v15.42A1.79 1.79 0 0 1 15.21 20H2.79A1.79 1.79 0 0 1 1 18.21V2.79A1.79 1.79 0 0 1 2.79 1h12.42m0-1H2.79A2.79 2.79 0 0 0 0 2.79v15.42A2.79 2.79 0 0 0 2.79 21h12.42A2.79 2.79 0 0 0 18 18.21V2.79A2.79 2.79 0 0 0 15.21 0"/><path d="M1 4h16v1H1zM1 8h16v1H1zM1 12h16v1H1zM1 16h16v1H1z"/><path d="M4 0h1v21H4z"/></g></svg><svg viewBox="0 0 34 20.38" id="ic_vkontakte" xmlns="http://www.w3.org/2000/svg"><path d="M18.2 20.37c1.13 0 1.13-1.63 1.13-2.27a2.43 2.43 0 0 1 2.26-2.26c1.13 0 3.07 1.94 4.53 3.4 1.13 1.13 1.13 1.13 2.26 1.13h3.4a2.3 2.3 0 0 0 2.26-2.27c0-.7-.77-1.9-3.4-4.52-2.26-2.27-3.42-1.1 0-5.66 2.09-2.78 3.61-5.3 3.35-6s-6.05-1.8-6.74-.77a42.45 42.45 0 0 0-3.4 5.66c-1.13 2.26-1.24 3.39-2.26 3.39s-1.13-2.19-1.13-3.39c0-3.75.54-6.39-1.13-6.79h-3.4a6.56 6.56 0 0 0-3.39 1.13s-1.41 1.09-1.14 1.13 2.27-.47 2.27 1.13v2.27s0 4.52-1.13 4.52-3.4-4.52-5.66-7.92C5.99.95 5.75 1.15 4.61 1.15s-2.26.05-3.39.05-1.28.72-1.13 1.08c2.26 5.66 3.89 9.21 8.19 13.69 3.94 4.11 6.58 4.32 8.78 4.42.53.04-.04-.02 1.14-.02z" fill="currentColor"/></svg><svg viewBox="0 0 31.69 22.27" id="ic_youtube" xmlns="http://www.w3.org/2000/svg"><path d="M16.05 22.27c-3.56-.12-6.95-.2-10.33-.33a13.43 13.43 0 0 1-2.19-.31A3.65 3.65 0 0 1 .8 19.19a13 13 0 0 1-.62-3.26 65.83 65.83 0 0 1-.11-7.82 19 19 0 0 1 .5-4.38 4.47 4.47 0 0 1 1.21-2.31A4 4 0 0 1 4.34.33c2.67-.13 5.33-.29 8-.32 3.59 0 7.19 0 10.78.08a42.73 42.73 0 0 1 4.66.31 3.63 3.63 0 0 1 3 2.35 11.16 11.16 0 0 1 .69 3.28 62.55 62.55 0 0 1 .11 8.44 18.54 18.54 0 0 1-.54 4.25 3.93 3.93 0 0 1-3.08 3 10.47 10.47 0 0 1-1.94.21zm-3.45-7.09l8.52-4.42L12.6 6.3z" fill="currentColor"/></svg></svg>