<svg width="0" height="0" class="hidden">
  <symbol xmlns="http://www.w3.org/2000/svg" viewBox="0 0 24.31 30.3" id="ic_account">
    <line x1="6.6" y1="16.74" x2="8.62" y2="16.95" fill="none" stroke="currentColor" stroke-linecap="round" stroke-linejoin="round"></line>
    <line x1="17.71" y1="16.74" x2="15.7" y2="16.95" fill="none" stroke="currentColor" stroke-linecap="round" stroke-linejoin="round"></line>
    <path d="M170.81,225.5c7.19,0,9.54,4.56,9.54,8.1a26.43,26.43,0,0,1,0,4.18,2.05,2.05,0,0,1,.88-.28c.3,0,.54.16.56.67a9.71,9.71,0,0,1-.35,3.07,4.14,4.14,0,0,1-1.11,1.56,1.21,1.21,0,0,1-.57.19l0,.2c-.26,1.66-1.36,3.33-2.2,4.91-1.67,3.11-3.82,5.66-6.89,5.7s-5.22-2.59-6.88-5.7c-.85-1.58-1.94-3.25-2.21-4.91l0-.2a1.14,1.14,0,0,1-.56-.19,4.23,4.23,0,0,1-1.12-1.56,10.33,10.33,0,0,1-.35-3.07c0-.51.26-.67.57-.67a2,2,0,0,1,.87.28,26.42,26.42,0,0,1,.05-4.18c0-3.55,2.35-8.1,9.54-8.1h.25m0-1h-.25c-3.5,0-6.33,1.05-8.2,3a8.82,8.82,0,0,0-2.34,6,25.32,25.32,0,0,0-.1,2.95,1.58,1.58,0,0,0-1.39,1.62,11.37,11.37,0,0,0,.41,3.46,5.16,5.16,0,0,0,1.42,2l0,0,0,0a1.78,1.78,0,0,0,.28.16,14.51,14.51,0,0,0,1.72,3.87l.51.93c2.22,4.15,4.75,6.19,7.75,6.23s5.56-2.08,7.78-6.23c.16-.31.33-.61.51-.93a15.17,15.17,0,0,0,1.72-3.87,1.56,1.56,0,0,0,.27-.16l0,0,0,0a5.3,5.3,0,0,0,1.41-2,10.78,10.78,0,0,0,.41-3.46,1.57,1.57,0,0,0-1.38-1.62,25.32,25.32,0,0,0-.1-2.95c0-4.51-3.29-9.05-10.54-9.05Z" transform="translate(-158.53 -224.5)" fill="currentColor"></path>
    <path d="M180.54,230.29c-3.65-.29-7.57.51-11.3,5.63-2.57,3.53-8.54,1.06-8.54,1.06" transform="translate(-158.53 -224.5)" fill="none" stroke="currentColor" stroke-miterlimit="10"></path>
  </symbol>
  <symbol xmlns="http://www.w3.org/2000/svg" xmlns:xlink="http://www.w3.org/1999/xlink" viewBox="0 0 18 18.11" id="ic_add_review">
    <defs>
      <clipPath id="a" transform="translate(-0.5 -0.5)">
        <rect width="19" height="19.11" fill="none"></rect>
      </clipPath>
    </defs>
    <g clip-path="url(#a)">
      <path d="M11.37,1.5a6.13,6.13,0,0,1,0,12.26H8l-.29.3L4.54,17.23V12.94l-.42-.3A6.12,6.12,0,0,1,7.63,1.5h3.74m0-1H7.63a7.12,7.12,0,0,0-4.09,13V18a.66.66,0,0,0,.66.66h.09a.66.66,0,0,0,.47-.19l3.66-3.66h2.95A7.13,7.13,0,0,0,11.37.5" transform="translate(-0.5 -0.5)" fill="currentColor"></path>
    </g>
  </symbol>
  <symbol xmlns="http://www.w3.org/2000/svg" viewBox="0 0 15.39 16" id="ic_all_link">
    <rect x="3" width="12.39" height="1" fill="currentColor"></rect>
    <rect x="3" y="5" width="12.39" height="1" fill="currentColor"></rect>
    <rect x="3" y="10" width="12.39" height="1" fill="currentColor"></rect>
    <rect x="3" y="15" width="12.39" height="1" fill="currentColor"></rect>
    <rect width="1.39" height="1" fill="currentColor"></rect>
    <rect y="5" width="1.39" height="1" fill="currentColor"></rect>
    <rect y="10" width="1.39" height="1" fill="currentColor"></rect>
    <rect y="15" width="1.39" height="1" fill="currentColor"></rect>
  </symbol>
  <symbol xmlns="http://www.w3.org/2000/svg" viewBox="0 0 16 21" id="ic_all_link2">
    <path d="M203.21,164a1.79,1.79,0,0,1,1.79,1.79v15.42a1.79,1.79,0,0,1-1.79,1.79H192.79a1.79,1.79,0,0,1-1.79-1.79V165.79a1.79,1.79,0,0,1,1.79-1.79h10.42m0-1H192.79a2.79,2.79,0,0,0-2.79,2.79v15.42a2.79,2.79,0,0,0,2.79,2.79h10.42a2.79,2.79,0,0,0,2.79-2.79V165.79a2.79,2.79,0,0,0-2.79-2.79Z" transform="translate(-190 -163)" fill="currentColor"></path>
    <polygon points="12 4 4 4 4 5 12 5 12 4 12 4" fill="currentColor"></polygon>
    <polygon points="12 8 4 8 4 9 12 9 12 8 12 8" fill="currentColor"></polygon>
    <polygon points="12 12 4 12 4 13 12 13 12 12 12 12" fill="currentColor"></polygon>
    <polygon points="12 16 4 16 4 17 12 17 12 16 12 16" fill="currentColor"></polygon>
  </symbol>
  <symbol xmlns="http://www.w3.org/2000/svg" viewBox="0 0 22.09 21.75" id="ic_buy">
    <path d="M231.44,184.5h2.8a.9.9,0,0,1,.89.71l1,2.93H248.7a.9.9,0,0,1,.73.36.91.91,0,0,1,.15.8l-3.34,6.93a1.94,1.94,0,0,1-1.87,1.28h-5.53c-.46,0-1.4,0-2-1.57-.17-.78-3.17-9.09-3.29-9.61h-2.07a.91.91,0,0,1,0-1.82m0-1.5h0a2.41,2.41,0,0,0,0,4.82h1c.22.63.55,1.59,1.07,3,.69,2,1.74,5,1.85,5.41l0,.1,0,.13a3.53,3.53,0,0,0,3.43,2.51h5.53a3.42,3.42,0,0,0,3.21-2.11l3.35-6.95.06-.12,0-.12a2.41,2.41,0,0,0-2.32-3.07H237.21l-.64-1.86a2.39,2.39,0,0,0-2.33-1.78Z" transform="translate(-229.03 -183)" fill="currentColor"></path>
    <path d="M238.23,200.86a1.2,1.2,0,1,1-1.19,1.2,1.19,1.19,0,0,1,1.19-1.2m0-1.5a2.7,2.7,0,1,0,2.69,2.7,2.69,2.69,0,0,0-2.69-2.7Z" transform="translate(-229.03 -183)" fill="currentColor"></path>
    <path d="M244.75,200.86a1.2,1.2,0,1,1-1.19,1.2,1.19,1.19,0,0,1,1.19-1.2m0-1.5a2.7,2.7,0,1,0,2.69,2.7,2.69,2.69,0,0,0-2.69-2.7Z" transform="translate(-229.03 -183)" fill="currentColor"></path>
    <path d="M239.68,193.9" transform="translate(-229.03 -183)" fill="none" stroke="currentColor" stroke-linecap="round" stroke-linejoin="round" stroke-width="1.5"></path>
    <line x1="10.06" y1="8.12" x2="15.12" y2="8.12" fill="none" stroke="currentColor" stroke-linecap="round" stroke-linejoin="round" stroke-width="1.5"></line>
    <line x1="11.09" y1="11.23" x2="14.09" y2="11.23" fill="none" stroke="currentColor" stroke-linecap="round" stroke-linejoin="round" stroke-width="1.5"></line>
  </symbol>
  <symbol xmlns="http://www.w3.org/2000/svg" viewBox="0 0 27.14 26.48" id="ic_cart">
    <path d="M228.7,225.5h3.7a1.21,1.21,0,0,1,1.17.94l1.32,3.86h16.55a1.18,1.18,0,0,1,1,.48,1.19,1.19,0,0,1,.2,1.05L248.2,241a2.55,2.55,0,0,1-2.46,1.69h-7.29c-.61,0-1.85,0-2.69-2.08-.23-1-4.17-12-4.33-12.65H228.7a1.2,1.2,0,1,1,0-2.4m0-1h0a2.2,2.2,0,1,0,0,4.4h2c.27.81.78,2.27,1.62,4.65,1,2.84,2.35,6.72,2.47,7.22v.08l0,.08c1.09,2.7,2.92,2.7,3.61,2.7h7.29a3.57,3.57,0,0,0,3.36-2.24l4.4-9.14,0-.08,0-.08a2.2,2.2,0,0,0-2.12-2.8H235.61l-1.08-3.14a2.19,2.19,0,0,0-2.13-1.66Z" transform="translate(-226.5 -224.5)" fill="currentColor"></path>
    <path d="M238.18,246.83a1.58,1.58,0,1,1-1.58,1.58,1.57,1.57,0,0,1,1.58-1.58m0-1a2.58,2.58,0,1,0,2.57,2.58,2.59,2.59,0,0,0-2.57-2.58Z" transform="translate(-226.5 -224.5)" fill="currentColor"></path>
    <path d="M245.45,246.83a1.58,1.58,0,1,1-1.57,1.58,1.57,1.57,0,0,1,1.57-1.58m0-1a2.58,2.58,0,1,0,2.57,2.58,2.58,2.58,0,0,0-2.57-2.58Z" transform="translate(-226.5 -224.5)" fill="currentColor"></path>
    <path d="M239.55,237.89" transform="translate(-226.5 -224.5)" fill="none" stroke="currentColor" stroke-linecap="round" stroke-linejoin="round"></path>
    <line x1="12.27" y1="9.72" x2="18.94" y2="9.72" fill="none" stroke="currentColor" stroke-linecap="round" stroke-linejoin="round"></line>
    <line x1="13.64" y1="13.81" x2="17.58" y2="13.81" fill="none" stroke="currentColor" stroke-linecap="round" stroke-linejoin="round"></line>
  </symbol>
  <symbol xmlns="http://www.w3.org/2000/svg" viewBox="0 0 22 26.98" id="ic_compare">
    <path d="M208.3,225a1.7,1.7,0,0,1,1.7,1.7v21.58a1.7,1.7,0,0,1-1.7,1.7h-.6a1.7,1.7,0,0,1-1.7-1.7V226.7a1.7,1.7,0,0,1,1.7-1.7h.6m0-1h-.6a2.7,2.7,0,0,0-2.7,2.7v21.58a2.7,2.7,0,0,0,2.7,2.7h.6a2.7,2.7,0,0,0,2.7-2.7V226.7a2.7,2.7,0,0,0-2.7-2.7Z" transform="translate(-189 -224)" fill="currentColor"></path>
    <path d="M200.3,235a1.7,1.7,0,0,1,1.7,1.7v11.58a1.7,1.7,0,0,1-1.7,1.7h-.6a1.7,1.7,0,0,1-1.7-1.7V236.7a1.7,1.7,0,0,1,1.7-1.7h.6m0-1h-.6a2.7,2.7,0,0,0-2.7,2.7v11.58a2.7,2.7,0,0,0,2.7,2.7h.6a2.7,2.7,0,0,0,2.7-2.7V236.7a2.7,2.7,0,0,0-2.7-2.7Z" transform="translate(-189 -224)" fill="currentColor"></path>
    <path d="M192.3,230a1.7,1.7,0,0,1,1.7,1.7v16.58a1.7,1.7,0,0,1-1.7,1.7h-.6a1.7,1.7,0,0,1-1.7-1.7V231.7a1.7,1.7,0,0,1,1.7-1.7h.6m0-1h-.6a2.7,2.7,0,0,0-2.7,2.7v16.58a2.7,2.7,0,0,0,2.7,2.7h.6a2.7,2.7,0,0,0,2.7-2.7V231.7a2.7,2.7,0,0,0-2.7-2.7Z" transform="translate(-189 -224)" fill="currentColor"></path>
  </symbol>
  <symbol xmlns="http://www.w3.org/2000/svg" viewBox="0 0 19 20.97" id="ic_compare2">
    <rect x="14" width="5" height="20.97" rx="2.17" fill="currentColor"></rect>
    <rect x="7" y="8" width="5" height="12.97" rx="2.15" fill="currentColor"></rect>
    <rect y="4" width="5" height="16.97" rx="2.17" fill="currentColor"></rect>
  </symbol>
  <symbol xmlns="http://www.w3.org/2000/svg" xmlns:xlink="http://www.w3.org/1999/xlink" viewBox="0 0 17 21" id="ic_delete">
    <defs>
      <clipPath id="a">
        <rect width="17" height="21" fill="none"></rect>
      </clipPath>
    </defs>
    <g clip-path="url(#a)">
      <path d="M15,18.21A1.79,1.79,0,0,1,13.21,20H3.79A1.79,1.79,0,0,1,2,18.21V6H1V18.21A2.79,2.79,0,0,0,3.79,21h9.42A2.79,2.79,0,0,0,16,18.21V6H15Z" fill="currentColor"></path>
      <polygon points="17 3 0 3 0 4 0.94 4 1.89 4 14.17 4 15.11 4 17 4 17 3" fill="currentColor"></polygon>
      <polygon points="17 5 0 5 0 6 0.94 6 1.89 6 14.17 6 15.11 6 17 6 17 5" fill="currentColor"></polygon>
      <polygon points="5 17 5 8 4 8 4 8.5 4 9 4 15.5 4 16 4 17 5 17" fill="currentColor"></polygon>
      <path d="M8.5,1A3.5,3.5,0,0,1,12,4h1a4.48,4.48,0,0,0-8.9,0h1A3.5,3.5,0,0,1,8.5,1" fill="currentColor"></path>
    </g>
  </symbol>
  <symbol xmlns="http://www.w3.org/2000/svg" xmlns:xlink="http://www.w3.org/1999/xlink" viewBox="0 0 17 21" id="ic_edit_pass">
    <defs>
      <clipPath id="a">
        <rect width="17" height="21" fill="none"></rect>
      </clipPath>
    </defs>
    <g clip-path="url(#a)">
      <path d="M14.21,8A1.79,1.79,0,0,1,16,9.79v8.42A1.79,1.79,0,0,1,14.21,20H2.79A1.79,1.79,0,0,1,1,18.21V9.79A1.79,1.79,0,0,1,2.79,8H14.21m0-1H2.79A2.79,2.79,0,0,0,0,9.79v8.42A2.79,2.79,0,0,0,2.79,21H14.21A2.79,2.79,0,0,0,17,18.21V9.79A2.79,2.79,0,0,0,14.21,7" fill="currentColor"></path>
      <path d="M5,4.5a3.5,3.5,0,0,1,7,0V8h1V4.5a4.5,4.5,0,0,0-9,0V8H5Z" fill="currentColor"></path>
      <path d="M8.5,17.5h0a2,2,0,0,1-2-2v-3a2,2,0,0,1,4,0v3A2,2,0,0,1,8.5,17.5Z" fill="none" stroke="currentColor" stroke-miterlimit="10"></path>
    </g>
  </symbol>
  <symbol xmlns="http://www.w3.org/2000/svg" xmlns:xlink="http://www.w3.org/1999/xlink" viewBox="0 0 17 20" id="ic_edit_personal">
    <defs>
      <clipPath id="a" transform="translate(0 0)">
        <rect width="17" height="20" fill="none"></rect>
      </clipPath>
    </defs>
    <rect x="5" y="4" width="9" height="1" fill="currentColor"></rect>
    <rect x="3" y="4" width="1" height="1" fill="currentColor"></rect>
    <rect x="5" y="8" width="9" height="1" fill="currentColor"></rect>
    <rect x="3" y="8" width="1" height="1" fill="currentColor"></rect>
    <rect x="5" y="12" width="9" height="1" fill="currentColor"></rect>
    <rect x="3" y="12" width="1" height="1" fill="currentColor"></rect>
    <g clip-path="url(#a)">
      <path d="M14.21,0H2.79A2.79,2.79,0,0,0,0,2.79V17.21A2.79,2.79,0,0,0,2.79,20H14.21A2.79,2.79,0,0,0,17,17.21V2.79A2.79,2.79,0,0,0,14.21,0M16,17.21A1.79,1.79,0,0,1,14.21,19H2.79A1.79,1.79,0,0,1,1,17.21V2.79A1.79,1.79,0,0,1,2.79,1H14.21A1.79,1.79,0,0,1,16,2.79Z" transform="translate(0 0)" fill="currentColor"></path>
    </g>
  </symbol>
  <symbol xmlns="http://www.w3.org/2000/svg" viewBox="0 0 20 14.78" id="ic_email">
    <rect x="272.51" y="125.23" width="1" height="3.85" rx="0.5" transform="translate(131.78 -261.43) rotate(90)" fill="currentColor"></rect>
    <rect x="273.59" y="114.57" width="1" height="12.14" rx="0.5" transform="translate(273.88 -128.2) rotate(129.82)" fill="currentColor"></rect>
    <rect x="282.18" y="114.57" width="1" height="12.15" rx="0.5" transform="translate(-74.06 -289.31) rotate(50.18)" fill="currentColor"></rect>
    <path d="M286.46,116.57a.93.93,0,0,1,.93.93v10.93a.93.93,0,0,1-.93.92H270.32a.93.93,0,0,1-.93-.92V117.5a.93.93,0,0,1,.93-.93h16.14m0-1H270.32a1.92,1.92,0,0,0-1.93,1.93v10.93a1.92,1.92,0,0,0,1.93,1.92h16.14a1.92,1.92,0,0,0,1.93-1.92V117.5a1.92,1.92,0,0,0-1.93-1.93Z" transform="translate(-268.39 -115.57)" fill="currentColor"></path>
  </symbol>
  <symbol xmlns="http://www.w3.org/2000/svg" viewBox="0 0 25 25" id="ic_facebook">
    <path d="M306.34,166.26H288.93a3.79,3.79,0,0,0-3.79,3.79v17.41a3.8,3.8,0,0,0,3.79,3.8H294V180.9H290.4v-3.63H294v-2.9a4.71,4.71,0,0,1,5.08-5.08H302v3.63h-1.45c-1.61,0-2.18.33-2.18,1.45v2.9H302l-.72,3.63h-2.91v10.36h8a3.81,3.81,0,0,0,3.8-3.8V170.05A3.8,3.8,0,0,0,306.34,166.26Z" transform="translate(-285.14 -166.26)" fill="currentColor"></path>
  </symbol>
  <symbol xmlns="http://www.w3.org/2000/svg" viewBox="0 0 26.85 26.85" id="ic_favorite">
    <path d="M279.47,229.33A12.43,12.43,0,1,1,267,241.76a12.43,12.43,0,0,1,12.43-12.43m0-1a13.43,13.43,0,1,0,13.42,13.43,13.45,13.45,0,0,0-13.42-13.43Z" transform="translate(-266.04 -228.33)" fill="currentColor"></path>
    <path d="M279.47,234.54a.72.72,0,0,1,.64.4l1.78,3.61a.71.71,0,0,0,.53.39l4,.58a.72.72,0,0,1,.4,1.22l-2.88,2.8a.71.71,0,0,0-.21.63l.68,4a.71.71,0,0,1-.7.83.64.64,0,0,1-.33-.08L279.8,247a.67.67,0,0,0-.33-.08.68.68,0,0,0-.34.08l-3.55,1.87a.72.72,0,0,1-1-.75l.68-4a.71.71,0,0,0-.21-.63l-2.88-2.8a.72.72,0,0,1,.4-1.22l4-.58a.75.75,0,0,0,.54-.39l1.77-3.61a.72.72,0,0,1,.65-.4m0-1a1.71,1.71,0,0,0-1.54,1L276.21,238l-3.82.56a1.71,1.71,0,0,0-.95,2.92l2.77,2.7-.66,3.82a1.71,1.71,0,0,0,2.49,1.8l3.43-1.8,3.42,1.8a1.71,1.71,0,0,0,2.49-1.8l-.66-3.82,2.78-2.7a1.71,1.71,0,0,0,.43-1.76,1.69,1.69,0,0,0-1.39-1.16l-3.82-.56L281,234.5a1.7,1.7,0,0,0-1.53-1Z" transform="translate(-266.04 -228.33)" fill="currentColor"></path>
  </symbol>
  <symbol xmlns="http://www.w3.org/2000/svg" viewBox="0 0 17.1 16.43" id="ic_favorite2">
    <path d="M279.47,234.08a.71.71,0,0,1,.64.39l1.78,3.61a.69.69,0,0,0,.53.39l4,.58a.72.72,0,0,1,.4,1.22l-2.88,2.8a.72.72,0,0,0-.21.64l.68,4a.71.71,0,0,1-.7.83.64.64,0,0,1-.33-.08l-3.56-1.87a.74.74,0,0,0-.67,0l-3.55,1.87a.72.72,0,0,1-1-.75l.68-4a.72.72,0,0,0-.21-.64l-2.88-2.8a.72.72,0,0,1,.4-1.22l4-.58a.72.72,0,0,0,.54-.39l1.77-3.61a.71.71,0,0,1,.65-.39m0-1a1.7,1.7,0,0,0-1.54.95l-1.72,3.47-3.82.56a1.71,1.71,0,0,0-.95,2.92l2.77,2.7-.66,3.82a1.72,1.72,0,0,0,2.49,1.81l3.43-1.8,3.42,1.8a1.72,1.72,0,0,0,2.49-1.81l-.66-3.82,2.78-2.7a1.71,1.71,0,0,0-1-2.92l-3.82-.56L281,234a1.69,1.69,0,0,0-1.53-.95Z" transform="translate(-270.92 -233.08)" fill="currentColor"></path>
  </symbol>
  <symbol xmlns="http://www.w3.org/2000/svg" viewBox="0 0 17.1 16.43" id="ic_favorite3">
    <path d="M275.69,215a1.15,1.15,0,0,1-.57-.14L271.57,213l-.11,0-.1,0-3.55,1.87a1.15,1.15,0,0,1-.57.14,1.19,1.19,0,0,1-.93-.43,1.21,1.21,0,0,1-.27-1l.68-4a.2.2,0,0,0-.06-.19l-2.88-2.8a1.23,1.23,0,0,1,.68-2.08l4-.57a.27.27,0,0,0,.17-.12l1.78-3.61a1.21,1.21,0,0,1,2.17,0l1.78,3.61a.27.27,0,0,0,.17.12l4,.57a1.23,1.23,0,0,1,.68,2.08l-2.88,2.8a.2.2,0,0,0-.06.19l.68,4a1.21,1.21,0,0,1-.27,1A1.19,1.19,0,0,1,275.69,215Z" transform="translate(-262.92 -199.08)" fill="currentColor"></path>
    <path d="M271.47,200.08a.71.71,0,0,1,.64.39l1.78,3.61a.69.69,0,0,0,.53.39l4,.58a.72.72,0,0,1,.4,1.22l-2.88,2.8a.72.72,0,0,0-.21.64l.68,4a.71.71,0,0,1-.7.83.64.64,0,0,1-.33-.08l-3.56-1.87a.74.74,0,0,0-.67,0l-3.55,1.87a.72.72,0,0,1-1-.75l.68-4a.72.72,0,0,0-.21-.64l-2.88-2.8a.72.72,0,0,1,.4-1.22l4-.58a.72.72,0,0,0,.54-.39l1.77-3.61a.71.71,0,0,1,.65-.39m0-1a1.7,1.7,0,0,0-1.54.95l-1.72,3.47-3.82.56a1.71,1.71,0,0,0-.95,2.92l2.77,2.7-.66,3.82a1.72,1.72,0,0,0,2.49,1.81l3.43-1.8,3.42,1.8a1.72,1.72,0,0,0,2.49-1.81l-.66-3.82,2.78-2.7a1.71,1.71,0,0,0-1-2.92l-3.82-.56L273,200a1.69,1.69,0,0,0-1.53-.95Z" transform="translate(-262.92 -199.08)" fill="currentColor"></path>
  </symbol>
  <symbol xmlns="http://www.w3.org/2000/svg" xmlns:xlink="http://www.w3.org/1999/xlink" viewBox="0 0 18 18" id="ic_grid_view">
    <defs>
      <clipPath id="a">
        <rect width="18" height="18" fill="none"></rect>
      </clipPath>
    </defs>
    <g clip-path="url(#a)">
      <path d="M6,8H2A2,2,0,0,1,0,6V2A2,2,0,0,1,2,0H6A2,2,0,0,1,8,2V6A2,2,0,0,1,6,8" fill="currentColor"></path>
      <path d="M16,8H12a2,2,0,0,1-2-2V2a2,2,0,0,1,2-2h4a2,2,0,0,1,2,2V6a2,2,0,0,1-2,2" fill="currentColor"></path>
      <path d="M6,18H2a2,2,0,0,1-2-2V12a2,2,0,0,1,2-2H6a2,2,0,0,1,2,2v4a2,2,0,0,1-2,2" fill="currentColor"></path>
      <path d="M16,18H12a2,2,0,0,1-2-2V12a2,2,0,0,1,2-2h4a2,2,0,0,1,2,2v4a2,2,0,0,1-2,2" fill="currentColor"></path>
    </g>
  </symbol>
  <symbol xmlns="http://www.w3.org/2000/svg" viewBox="0 0 25 25" id="ic_instagram">
    <ellipse cx="12.5" cy="12.5" rx="4.08" ry="4.04" fill="currentColor"></ellipse>
    <path d="M396.17,166.26H383.76a6.28,6.28,0,0,0-6.29,6.23V185a6.28,6.28,0,0,0,6.29,6.23h12.41a6.29,6.29,0,0,0,6.3-6.23V172.49A6.28,6.28,0,0,0,396.17,166.26ZM390,185.92a7.16,7.16,0,1,1,7.24-7.16A7.2,7.2,0,0,1,390,185.92Zm7.48-13.28a1.82,1.82,0,1,1,1.84-1.82A1.82,1.82,0,0,1,397.45,172.64Z" transform="translate(-377.47 -166.26)" fill="currentColor"></path>
  </symbol>
  <symbol xmlns="http://www.w3.org/2000/svg" xmlns:xlink="http://www.w3.org/1999/xlink" viewBox="0 0 18 18" id="ic_list_view">
    <defs>
      <clipPath id="a">
        <rect width="18" height="18" fill="none"></rect>
      </clipPath>
    </defs>
    <g clip-path="url(#a)">
      <path d="M16,4H2A2,2,0,0,1,2,0H16a2,2,0,0,1,0,4" fill="currentColor"></path>
      <path d="M16,11H2A2,2,0,0,1,2,7H16a2,2,0,0,1,0,4" fill="currentColor"></path>
      <path d="M16,18H2a2,2,0,0,1,0-4H16a2,2,0,0,1,0,4" fill="currentColor"></path>
    </g>
  </symbol>
  <symbol xmlns="http://www.w3.org/2000/svg" xmlns:xlink="http://www.w3.org/1999/xlink" viewBox="0 0 20 20" id="ic_logout">
    <defs>
      <clipPath id="a">
        <rect width="20" height="20" fill="none"></rect>
      </clipPath>
    </defs>
    <polygon points="5 6 4 6 3 6 3 7 4 7 4 8 4 9 12 9 12 11 4 11 4 12 4 13 3 13 3 14 4 14 5 14 5 13 5 12 13 12 13 8 5 8 5 7 5 6" fill="currentColor"></polygon>
    <rect x="2" y="7" width="1" height="1" fill="currentColor"></rect>
    <rect x="1" y="8" width="1" height="1" fill="currentColor"></rect>
    <polygon points="0 9 0 10 0 11 1 11 1 10 1 9 0 9" fill="currentColor"></polygon>
    <rect x="2" y="12" width="1" height="1" fill="currentColor"></rect>
    <rect x="1" y="11" width="1" height="1" fill="currentColor"></rect>
    <g clip-path="url(#a)">
      <path d="M17.21,0H5.79A2.79,2.79,0,0,0,3,2.79V4H4V2.79A1.79,1.79,0,0,1,5.79,1H17.21A1.79,1.79,0,0,1,19,2.79V17.21A1.79,1.79,0,0,1,17.21,19H5.79A1.79,1.79,0,0,1,4,17.21V16H3v1.21A2.79,2.79,0,0,0,5.79,20H17.21A2.79,2.79,0,0,0,20,17.21V2.79A2.79,2.79,0,0,0,17.21,0" fill="currentColor"></path>
    </g>
  </symbol>
  <symbol xmlns="http://www.w3.org/2000/svg" xmlns:xlink="http://www.w3.org/1999/xlink" viewBox="0 0 17 20.28" id="ic_percents">
    <defs>
      <clipPath id="a" transform="translate(0 0)">
        <rect width="17" height="20.28" fill="none"></rect>
      </clipPath>
    </defs>
    <g clip-path="url(#a)">
      <path d="M3.5,1A2.5,2.5,0,1,1,1,3.5,2.5,2.5,0,0,1,3.5,1m0-1A3.5,3.5,0,1,0,7,3.5,3.5,3.5,0,0,0,3.5,0" transform="translate(0 0)" fill="currentColor"></path>
      <path d="M13.5,14A2.5,2.5,0,1,1,11,16.5,2.5,2.5,0,0,1,13.5,14m0-1A3.5,3.5,0,1,0,17,16.5,3.5,3.5,0,0,0,13.5,13" transform="translate(0 0)" fill="currentColor"></path>
      <rect x="-3" y="10" width="22" height="1" transform="translate(-5.09 12.18) rotate(-60)" fill="currentColor"></rect>
    </g>
  </symbol>
  <symbol xmlns="http://www.w3.org/2000/svg" viewBox="0 0 14 21" id="ic_phone">
    <path d="M256.17,137.73a1,1,0,0,1,1,1v17a1,1,0,0,1-1,1h-10a1,1,0,0,1-1-1v-17a1,1,0,0,1,1-1h10m0-1h-10a2,2,0,0,0-2,2v17a2,2,0,0,0,2,2h10a2,2,0,0,0,2-2v-17a2,2,0,0,0-2-2Z" transform="translate(-244.16 -136.73)" fill="currentColor"></path>
    <polygon points="9 2 5 2 5 3 9 3 9 2 9 2" fill="currentColor"></polygon>
    <polygon points="8 18 6 18 6 19 8 19 8 18 8 18" fill="currentColor"></polygon>
    <polygon points="13 16 1 16 1 17 13 17 13 16 13 16" fill="currentColor"></polygon>
  </symbol>
  <symbol xmlns="http://www.w3.org/2000/svg" viewBox="0 0 19.63 19.63" id="ic_search">
    <path d="M315.28,228.87a7.13,7.13,0,1,1-7.12,7.13,7.14,7.14,0,0,1,7.12-7.13m0-1a8.13,8.13,0,1,0,8.13,8.13,8.12,8.12,0,0,0-8.13-8.13Z" transform="translate(-303.78 -227.87)" fill="currentColor"></path>
    <line x1="6.05" y1="13.58" x2="0.5" y2="19.13" fill="none" stroke="currentColor" stroke-linecap="round" stroke-miterlimit="10"></line>
  </symbol>
  <symbol xmlns="http://www.w3.org/2000/svg" viewBox="0 0 20 13" id="ic_table">
    <rect id="Rectangle 3" x="4" width="16" height="3" fill="currentColor"></rect>
    <rect id="Rectangle 6" width="3" height="3" fill="currentColor"></rect>
    <rect id="Rectangle 4" x="4" y="5" width="16" height="3" fill="currentColor"></rect>
    <rect id="Rectangle 7" y="5" width="3" height="3" fill="currentColor"></rect>
    <rect id="Rectangle 5" x="4" y="10" width="16" height="3" fill="currentColor"></rect>
    <rect id="Rectangle 8" y="10" width="3" height="3" fill="currentColor"></rect>
  </symbol>
  <symbol xmlns="http://www.w3.org/2000/svg" viewBox="0 0 34 20.38" id="ic_vkontakte">
    <path d="M345,188.94c1.13,0,1.13-1.63,1.13-2.27a2.43,2.43,0,0,1,2.26-2.26c1.13,0,3.07,1.94,4.53,3.4,1.13,1.13,1.13,1.13,2.26,1.13h3.4a2.3,2.3,0,0,0,2.26-2.27c0-.7-.77-1.9-3.4-4.52-2.26-2.27-3.42-1.1,0-5.66,2.09-2.78,3.61-5.3,3.35-6s-6.05-1.8-6.74-.77a42.45,42.45,0,0,0-3.4,5.66c-1.13,2.26-1.24,3.39-2.26,3.39s-1.13-2.19-1.13-3.39c0-3.75.54-6.39-1.13-6.79h-3.4a6.56,6.56,0,0,0-3.39,1.13s-1.41,1.09-1.14,1.13,2.27-.47,2.27,1.13v2.27s0,4.52-1.13,4.52-3.4-4.52-5.66-7.92c-.89-1.33-1.13-1.13-2.27-1.13s-2.26.05-3.39.05-1.28.72-1.13,1.08c2.26,5.66,3.89,9.21,8.19,13.69,3.94,4.11,6.58,4.32,8.78,4.42C344.39,189,343.82,188.94,345,188.94Z" transform="translate(-326.8 -168.57)" fill="currentColor"></path>
  </symbol>
  <symbol xmlns="http://www.w3.org/2000/svg" viewBox="0 0 31.69 22.27" id="ic_youtube">
    <path d="M185.45,418.3c-3.56-.12-6.95-.2-10.33-.33a13.43,13.43,0,0,1-2.19-.31,3.65,3.65,0,0,1-2.73-2.44,13,13,0,0,1-.62-3.26,65.83,65.83,0,0,1-.11-7.82,19,19,0,0,1,.5-4.38,4.47,4.47,0,0,1,1.21-2.31,4,4,0,0,1,2.56-1.09c2.67-.13,5.33-.29,8-.32,3.59,0,7.19,0,10.78.08a42.73,42.73,0,0,1,4.66.31,3.63,3.63,0,0,1,3,2.35,11.16,11.16,0,0,1,.69,3.28,62.55,62.55,0,0,1,.11,8.44,18.54,18.54,0,0,1-.54,4.25,3.93,3.93,0,0,1-3.08,3,10.47,10.47,0,0,1-1.94.21ZM182,411.21l8.52-4.42L182,402.33Z" transform="translate(-169.4 -396.03)" fill="currentColor"></path>
  </symbol>
</svg>